<svg width="12" height="9" viewBox="0 0 12 9" fill="none" xmlns="http://www.w3.org/2000/svg">
<path fill-rule="evenodd" clip-rule="evenodd" d="M11.9258 4.13148C11.8865 4.03908 11.8334 3.95384 11.7905 3.90513L11.7825 3.88723L8.12054 0.281496C7.93573 0.100279 7.69126 0 7.43079 0C7.17031 0 6.92512 0.100279 6.74031 0.282212C6.36052 0.656824 6.36052 1.26637 6.74104 1.63955L8.67059 3.53983H0.975687C0.438004 3.53983 0 3.97031 0 4.50036C0 4.75607 0.101861 4.99674 0.285939 5.17939C0.470018 5.3606 0.715213 5.46017 0.975687 5.46017H8.67059L6.74177 7.36045C6.55696 7.54166 6.4551 7.78305 6.4551 8.03947C6.4551 8.29519 6.55696 8.53657 6.74104 8.7185C6.92512 8.89972 7.17031 9 7.43079 9C7.69126 9 7.93573 8.89972 8.12054 8.7185L11.7686 5.12638L11.7759 5.11206C11.8385 5.039 11.8887 4.95663 11.9258 4.86781C12.0247 4.63502 12.0247 4.36713 11.9258 4.13148Z" fill="#39CDCC"/>
</svg>
