<svg width="14" height="13" viewBox="0 0 14 13" fill="none" xmlns="http://www.w3.org/2000/svg">
<path d="M6.50001 11.9167H1.62499C1.32599 11.9167 1.08334 11.674 1.08334 11.375V1.62502C1.08334 1.32601 1.32601 1.08336 1.62499 1.08336H6.50001C6.79955 1.08336 7.04167 0.841244 7.04167 0.541706C7.04167 0.242168 6.79955 0 6.50001 0H1.62499C0.729076 0 0 0.729102 0 1.62502V11.375C0 12.2709 0.729076 13 1.62499 13H6.50001C6.79955 13 7.04167 12.7579 7.04167 12.4583C7.04167 12.1588 6.79955 11.9167 6.50001 11.9167Z" fill="#39CDCC"/>
<path d="M12.8818 6.11435L9.58849 2.86435C9.37616 2.65418 9.03275 2.6569 8.82258 2.86977C8.61241 3.08264 8.61457 3.42552 8.82801 3.63569L11.1815 5.95834H4.87491C4.57537 5.95834 4.33325 6.20046 4.33325 6.5C4.33325 6.79954 4.57537 7.04168 4.87491 7.04168H11.1815L8.82801 9.36433C8.6146 9.57451 8.61297 9.91738 8.82258 10.1302C8.92873 10.2375 9.06849 10.2917 9.20825 10.2917C9.34584 10.2917 9.48341 10.2397 9.58849 10.1356L12.8818 6.88564C12.9848 6.78382 13.0432 6.64513 13.0432 6.49997C13.0432 6.35487 12.9853 6.21674 12.8818 6.11435Z" fill="#39CDCC"/>
</svg>
