<svg width="14" height="16" viewBox="0 0 14 16" fill="none" xmlns="http://www.w3.org/2000/svg">
<path d="M3.18858 5.0567C3.18858 6.56072 3.99821 7.87418 5.20435 8.5894C2.72785 9.45356 0.950469 11.8082 0.95 14.58C0.95 14.8396 1.16036 15.05 1.42 15.05C1.67963 15.05 1.8898 14.8397 1.88984 14.5801C1.89499 11.5947 4.30957 9.17959 7.29544 9.17425C10.281 9.17959 12.6954 11.5947 12.7006 14.5801C12.7006 14.8397 12.911 15.05 13.1706 15.05C13.4302 15.05 13.6404 14.8396 13.6404 14.58C13.6399 11.8085 11.8626 9.45388 9.38621 8.58927C10.5925 7.87418 11.402 6.56056 11.402 5.05654C11.402 2.78798 9.56384 0.95 7.29544 0.95C5.02736 0.95 3.18858 2.78797 3.18858 5.0567ZM4.12811 5.0567C4.13094 3.30727 5.54645 1.89236 7.29544 1.8889C9.04488 1.89236 10.4596 3.30725 10.4628 5.05669C10.4595 6.80552 9.04487 8.22088 7.29544 8.22402C5.54662 8.22088 4.13094 6.8055 4.12811 5.0567Z" fill="#39CDCC" stroke="#39CDCC" stroke-width="0.1"/>
</svg>
