<svg width="1020" height="1298" viewBox="0 0 1020 1298" fill="none" xmlns="http://www.w3.org/2000/svg">
<path d="M635.21 312.006C609.638 300.464 510.609 256.302 393.78 289.423C368.96 296.449 252.131 329.821 210.764 425.17C156.361 551.383 292.494 651.499 258.148 788.501C228.815 906.182 62.5967 876.072 13.9596 1002.28C-11.3617 1068.02 -1.83485 1155.6 39.281 1206.53C167.392 1364.86 735.743 1330.74 883.911 987.229C991.965 737.063 842.043 404.595 635.21 312.006Z" fill="#FCFAFF" style="mix-blend-mode:multiply"/>
<g opacity="0.4">
<path d="M416.344 1144.56C388.014 1144.56 362.442 1140.04 340.63 1131.01C278.205 1104.91 224.052 1028.38 214.776 953.104C205.75 882.094 243.607 833.165 280.21 785.741C316.312 738.819 350.659 694.407 335.115 632.931C317.816 564.18 268.176 522.527 220.291 482.129C166.891 437.215 116.499 394.809 110.231 319.032C104.214 248.273 140.567 170.739 212.77 100.732C254.889 59.8325 329.85 9.39784 448.936 0.866597V2.12119V0.866597C565.263 -7.41373 701.648 44.0247 813.713 138.872C932.047 238.738 1006.26 371.976 1017.54 504.712C1025.81 602.57 1001.49 700.429 945.083 795.527C896.196 878.079 824.995 954.86 739.003 1017.59C627.188 1098.89 507.601 1144.56 416.344 1144.56ZM473.505 2.62303C465.231 2.62303 456.958 2.87395 448.685 3.62671C330.351 12.1579 255.892 62.3417 214.024 102.991C142.322 172.495 106.22 249.276 112.237 319.283C118.505 394.057 168.646 435.96 221.545 480.624C269.681 521.272 319.571 563.176 337.371 632.68C353.166 695.41 318.568 740.074 282.216 787.497C246.114 834.419 208.508 883.098 217.283 953.104C226.559 1027.38 280.21 1103.15 341.633 1129C386.51 1147.82 448.434 1146.81 520.888 1125.74C592.34 1104.91 667.05 1067.02 737.499 1015.83C926.782 878.079 1030.57 687.13 1015.03 505.214C1003.75 373.23 929.79 240.494 811.958 141.13C707.915 53.0577 583.314 2.62303 473.505 2.62303Z" fill="#E9E9FF" style="mix-blend-mode:multiply"/>
</g>
</svg>
