<svg width="1440" height="914" viewBox="0 0 1440 914" fill="none" xmlns="http://www.w3.org/2000/svg">
<path d="M1396 894C1396 894 1130.8 860.878 1239.85 596.256C1349.33 331.986 1162.2 319.654 1003.51 352.423C844.813 385.545 735.764 397.878 704.789 298.865C673.814 199.852 483.296 -51.0284 -2.40803e-05 9.22509V894H1396Z" fill="#EBF5FF" fill-opacity="0.4" style="mix-blend-mode:multiply"/>
<path d="M517.959 409.693C497.107 403.785 416.358 381.182 321.094 398.135C300.855 401.731 205.591 418.811 171.86 467.614C127.499 532.212 238.504 583.455 210.497 653.576C186.579 713.808 51.0422 698.397 11.3829 762.996C-9.2645 796.644 -1.49616 841.465 32.0303 867.535C136.494 948.573 599.936 931.107 720.753 755.29C808.863 627.248 686.614 457.083 517.959 409.693Z" fill="#FCFAFF" style="mix-blend-mode:multiply"/>
<g opacity="0.4">
<path d="M339.493 835.814C316.392 835.814 295.54 833.502 277.755 828.879C226.852 815.522 182.695 776.352 175.131 737.824C167.772 701.479 198.641 676.436 228.487 652.163C257.925 628.147 285.932 605.416 273.258 573.951C259.152 538.762 218.675 517.443 179.629 496.767C136.085 473.778 94.9949 452.074 89.8842 413.289C84.9779 377.073 114.62 337.389 173.496 301.557C207.84 280.624 268.964 254.81 366.069 250.444V251.086V250.444C460.924 246.205 572.134 272.533 663.514 321.078C760.004 372.192 820.515 440.387 829.715 508.325C836.461 558.411 816.631 608.498 770.635 657.172C730.771 699.424 672.713 738.723 602.594 770.83C511.418 812.44 413.905 835.814 339.493 835.814ZM386.103 251.343C379.356 251.343 372.61 251.471 365.864 251.856C269.373 256.223 208.658 281.908 174.518 302.713C116.051 338.288 86.6133 377.586 91.5196 413.417C96.6303 451.689 137.516 473.136 180.651 495.996C219.901 516.801 260.583 538.248 275.097 573.823C287.976 605.929 259.765 628.789 230.123 653.062C200.685 677.078 170.021 701.993 177.176 737.824C184.74 775.838 228.487 814.623 278.573 827.851C315.166 837.483 365.66 836.97 424.74 826.182C483.002 815.522 543.922 796.13 601.367 769.931C755.711 699.424 840.345 601.691 827.671 508.582C818.471 441.029 758.164 373.091 662.083 322.234C577.244 277.156 475.643 251.343 386.103 251.343Z" fill="#E9E9FF" style="mix-blend-mode:multiply"/>
</g>
<rect y="14" width="1440" height="900" fill="url(#paint0_linear)"/>
<path d="M0 914C0 914 273.556 871.546 161.07 644.22C48.1459 417.196 241.167 406.602 404.863 434.753C568.559 463.207 681.046 473.801 712.997 388.743C744.948 303.685 941.471 88.1635 1440 139.925V914H0Z" fill="#EBF5FF" style="mix-blend-mode:multiply"/>
<defs>
<linearGradient id="paint0_linear" x1="-0.000108906" y1="1355" x2="701.628" y2="-508.847" gradientUnits="userSpaceOnUse">
<stop stop-color="#213F7D"/>
<stop offset="1" stop-color="#39CDCC"/>
</linearGradient>
</defs>
</svg>
