<svg width="1440" height="900" viewBox="0 0 1440 900" fill="none" xmlns="http://www.w3.org/2000/svg">
<rect width="1440" height="900" fill="white"/>
<path d="M979 900C979 900 793.02 867.397 869.495 606.919C946.267 346.788 815.04 334.648 703.749 366.904C592.459 399.508 515.984 411.647 494.261 314.184C472.539 216.722 338.93 -30.2293 2.70605e-05 29.0806V900H979Z" fill="#EBF5FF" fill-opacity="0.4" style="mix-blend-mode:multiply"/>
<rect width="1440" height="900" fill="url(#paint0_linear)"/>
<path d="M0 900C0 900 273.556 871.546 161.07 644.22C48.1459 417.196 241.167 406.602 404.863 434.753C568.559 463.207 681.046 473.801 712.997 388.743C744.948 303.685 941.471 88.1635 1440 139.925V900H0Z" fill="#EBF5FF" style="mix-blend-mode:multiply"/>
<defs>
<linearGradient id="paint0_linear" x1="-0.000108906" y1="1341" x2="701.628" y2="-522.847" gradientUnits="userSpaceOnUse">
<stop stop-color="#213F7D"/>
<stop offset="1" stop-color="#39CDCC"/>
</linearGradient>
</defs>
</svg>
