<svg width="30" height="30" viewBox="0 0 30 30" fill="none" xmlns="http://www.w3.org/2000/svg">
<g clip-path="url(#clip0)">
<path d="M3.10547 17.5867C2.75442 17.5867 2.46953 17.8716 2.46953 18.2227C2.46953 18.5737 2.75442 18.8586 3.10547 18.8586C3.45652 18.8586 3.74141 18.5737 3.74141 18.2227C3.74141 17.8716 3.45652 17.5867 3.10547 17.5867Z" fill="#39CDCC" stroke="#39CDCC" stroke-width="0.1"/>
<path d="M26.9569 19.2546C27.6638 18.9993 28.453 19.1047 29.068 19.5366C29.6829 19.9683 30.05 20.6746 30.05 21.426C30.05 22.3679 29.4888 23.204 28.6186 23.5616L19.3027 27.9909L19.3025 27.991L19.2929 27.9954L26.9569 19.2546ZM26.9569 19.2546C26.9515 19.2566 26.9461 19.2586 26.9406 19.2608C26.9405 19.2608 26.9404 19.2609 26.9403 19.2609L21.4817 21.4026C21.4905 21.32 21.4953 21.2366 21.4953 21.1523C21.4953 19.8324 20.4215 18.7586 19.1016 18.7586H15.307C15.215 18.7586 15.1241 18.7348 15.044 18.6897L15.044 18.6897L11.9483 16.9485C11.3287 16.5993 10.6247 16.4148 9.9123 16.4148H6.08516V15.8789C6.08516 15.5277 5.80045 15.243 5.44922 15.243H0.585938C0.23471 15.243 -0.05 15.5277 -0.05 15.8789V26.4258C-0.05 26.777 0.23471 27.0617 0.585938 27.0617H5.44922C5.80045 27.0617 6.08516 26.777 6.08516 26.4258V25.8898H6.46622L12.0475 28.1491L12.0475 28.1491C13.1473 28.5939 14.3061 28.8195 15.4916 28.8195C16.8124 28.8195 18.0914 28.5422 19.2927 27.9955L26.9569 19.2546ZM6.08516 24.618V17.6867H9.9123C10.4064 17.6867 10.8946 17.8146 11.3244 18.0568L11.3244 18.0568L14.4201 19.798L6.08516 24.618ZM6.08516 24.618H6.59004C6.67182 24.618 6.75283 24.6338 6.82863 24.6644L6.82864 24.6645L12.5245 26.9701C12.5245 26.9701 12.5245 26.9701 12.5245 26.9701C13.472 27.3533 14.4702 27.5477 15.4916 27.5477C16.6279 27.5477 17.728 27.3095 18.7615 26.8398C18.7616 26.8397 18.7618 26.8397 18.7619 26.8396L28.0892 22.4049L6.08516 24.618ZM4.81328 25.7898H1.22187V16.5148H4.81328V25.7898ZM28.1259 22.3889C28.1136 22.3938 28.1013 22.3992 28.0892 22.4049L14.4201 19.7981C14.6901 19.9501 14.9968 20.0305 15.307 20.0305H19.1016C19.7201 20.0305 20.2234 20.5338 20.2234 21.1523C20.2234 21.5392 20.0215 21.8998 19.6926 22.1045C19.6926 22.1045 19.6926 22.1045 19.6926 22.1045C19.6457 22.123 19.6029 22.1467 19.5637 22.1739C19.4198 22.2394 19.2621 22.2742 19.1016 22.2742H13.1449C12.148 22.2742 11.3371 23.0852 11.3371 24.082C11.3371 24.4333 11.6218 24.718 11.973 24.718C12.3243 24.718 12.609 24.4333 12.609 24.082C12.609 23.7866 12.8495 23.5461 13.1449 23.5461H19.1016C19.502 23.5461 19.8954 23.4446 20.2426 23.255L27.3953 20.4485C27.3956 20.4484 27.3958 20.4484 27.3961 20.4483C27.7164 20.3351 28.0587 20.382 28.3372 20.5775C28.6176 20.7744 28.7781 21.0833 28.7781 21.426C28.7781 21.8524 28.5222 22.2302 28.1259 22.3889Z" fill="#39CDCC" stroke="#39CDCC" stroke-width="0.1"/>
<path d="M3.10547 19.9305C2.75424 19.9305 2.46953 20.2152 2.46953 20.5664V24.082C2.46953 24.4333 2.75424 24.718 3.10547 24.718C3.4567 24.718 3.74141 24.4333 3.74141 24.082V20.5664C3.74141 20.2152 3.4567 19.9305 3.10547 19.9305Z" fill="#39CDCC" stroke="#39CDCC" stroke-width="0.1"/>
<path d="M23.2031 10.5555C21.237 10.5555 19.6375 12.155 19.6375 14.1211C19.6375 16.0872 21.237 17.6867 23.2031 17.6867C25.1693 17.6867 26.7688 16.0872 26.7688 14.1211C26.7688 12.155 25.1693 10.5555 23.2031 10.5555ZM23.2031 16.4148C21.9384 16.4148 20.9094 15.3858 20.9094 14.1211C20.9094 12.8564 21.9384 11.8273 23.2031 11.8273C24.4679 11.8273 25.4969 12.8564 25.4969 14.1211C25.4969 15.3858 24.4679 16.4148 23.2031 16.4148Z" fill="#39CDCC" stroke="#39CDCC" stroke-width="0.1"/>
<path d="M20.8594 1.18047C18.8932 1.18047 17.2937 2.77996 17.2937 4.74609C17.2937 6.71222 18.8932 8.31172 20.8594 8.31172C22.8255 8.31172 24.425 6.71222 24.425 4.74609C24.425 2.77996 22.8255 1.18047 20.8594 1.18047ZM20.8594 7.03984C19.5946 7.03984 18.5656 6.01082 18.5656 4.74609C18.5656 3.48136 19.5946 2.45234 20.8594 2.45234C22.1241 2.45234 23.1531 3.48136 23.1531 4.74609C23.1531 6.01082 22.1241 7.03984 20.8594 7.03984Z" fill="#39CDCC" stroke="#39CDCC" stroke-width="0.1"/>
<path d="M13.8281 8.21172C11.862 8.21172 10.2625 9.81121 10.2625 11.7773C10.2625 13.7435 11.862 15.343 13.8281 15.343C15.7943 15.343 17.3938 13.7435 17.3938 11.7773C17.3938 9.81121 15.7943 8.21172 13.8281 8.21172ZM13.8281 14.0711C12.5634 14.0711 11.5344 13.0421 11.5344 11.7773C11.5344 10.5126 12.5634 9.48359 13.8281 9.48359C15.0929 9.48359 16.1219 10.5126 16.1219 11.7773C16.1219 13.0421 15.0929 14.0711 13.8281 14.0711Z" fill="#39CDCC" stroke="#39CDCC" stroke-width="0.1"/>
</g>
<defs>
<clipPath id="clip0">
<rect width="30" height="30" fill="white"/>
</clipPath>
</defs>
</svg>
