<svg width="30" height="30" viewBox="0 0 30 30" fill="none" xmlns="http://www.w3.org/2000/svg">
<path d="M0.589454 29.9126C0.915001 29.9126 1.17891 29.6486 1.17891 29.3231C1.17891 28.9976 0.915001 28.7336 0.589454 28.7336C0.263908 28.7336 0 28.9976 0 29.3231C0 29.6486 0.263908 29.9126 0.589454 29.9126Z" fill="#39CDCC"/>
<path d="M15.6448 14.9618C15.9697 14.9618 16.2331 14.6984 16.2331 14.3735C16.2331 14.0486 15.9697 13.7852 15.6448 13.7852C15.3199 13.7852 15.0565 14.0486 15.0565 14.3735C15.0565 14.6984 15.3199 14.9618 15.6448 14.9618Z" fill="#39CDCC"/>
<path d="M23.3484 6.91586C22.8755 6.44289 22.2467 6.1825 21.5779 6.1825C20.9091 6.1825 20.2803 6.443 19.8074 6.91586C18.8312 7.89215 18.8312 9.48063 19.8074 10.4569C20.2956 10.945 20.9366 11.189 21.5779 11.189C22.219 11.189 22.8603 10.9449 23.3484 10.4569C24.3246 9.48057 24.3246 7.89209 23.3484 6.91586ZM22.5165 9.62489C21.999 10.1424 21.1568 10.1424 20.6393 9.62489C20.1218 9.10739 20.1218 8.26528 20.6393 7.74772C20.8901 7.49699 21.2233 7.35894 21.5779 7.35894C21.9324 7.35894 22.2657 7.49699 22.5164 7.74772C23.034 8.26528 23.034 9.10739 22.5165 9.62489Z" fill="#39CDCC"/>
<path d="M7.34819 24.1084C7.05733 23.9635 6.70424 24.082 6.5594 24.3728L5.85873 25.7799C5.55405 26.3917 4.94127 26.8008 4.25936 26.8474L3.44443 26.9032C3.30668 26.9124 3.21609 26.8438 3.1742 26.8019C3.1323 26.76 3.06351 26.6692 3.07289 26.5316L3.12867 25.7167C3.17537 25.0349 3.58447 24.422 4.19619 24.1173L5.60327 23.4167C5.89413 23.2718 6.01249 22.9187 5.86764 22.6279C5.72286 22.3371 5.36971 22.2187 5.07885 22.3635L3.67178 23.0642C2.68787 23.5541 2.02998 24.5397 1.95486 25.6363L1.89908 26.4512C1.86896 26.8911 2.03045 27.3221 2.34217 27.6338C2.62916 27.9208 3.01734 28.0805 3.42047 28.0805C3.4551 28.0805 3.48996 28.0793 3.52477 28.0769L4.33969 28.0212C5.43633 27.9461 6.42188 27.2883 6.91184 26.3042L7.61251 24.8972C7.75735 24.6063 7.63899 24.2532 7.34819 24.1084Z" fill="#39CDCC"/>
<path d="M29.5941 0.479255C29.318 0.207321 28.9377 0.0651136 28.5515 0.0902503L28.0038 0.125172C23.0925 0.438708 18.4962 2.80936 15.3935 6.62933L14.1042 8.21657L10.7302 8.11749C10.7244 8.11732 10.7186 8.11726 10.7129 8.11726C8.03708 8.11726 5.52135 9.15929 3.62918 11.0514L0.173429 14.5072C0.0090736 14.6716 -0.0431335 14.9174 0.0403041 15.1343C0.123742 15.3513 0.327063 15.4988 0.559211 15.5106L7.8743 15.8865L7.57606 16.2537C7.42577 16.4388 7.40198 16.6962 7.51594 16.9056C7.63055 17.1163 7.75067 17.3237 7.87594 17.5277L6.14121 19.5871C5.99291 19.7632 5.96098 20.0096 6.05936 20.2178C6.43829 21.0185 6.9412 21.7379 7.55432 22.356C8.18233 22.9893 8.91669 23.5072 9.73689 23.8954C9.81704 23.9333 9.903 23.9519 9.98843 23.9519C10.1209 23.9519 10.2523 23.9071 10.3592 23.8205C10.7329 23.5173 11.1637 23.1577 11.5804 22.81C11.8774 22.5622 12.1813 22.3086 12.4653 22.0748C12.6348 22.1769 12.8064 22.2758 12.9806 22.3705C13.0688 22.4184 13.1654 22.442 13.2617 22.442C13.3897 22.442 13.517 22.4003 13.6224 22.3185L14.0233 22.0074L14.4008 29.3533C14.4127 29.5855 14.5602 29.7888 14.7771 29.8722C14.8458 29.8986 14.9172 29.9115 14.9881 29.9115C15.1413 29.9115 15.2918 29.8515 15.4041 29.7391L18.86 26.2833C20.7521 24.3911 21.7941 21.8754 21.7941 19.1995V15.9772L23.1574 14.9192C27.2431 11.7487 29.7314 6.96782 29.9843 1.8023L29.9983 1.51601C30.0174 1.12906 29.87 0.751248 29.5941 0.479255ZM1.94085 14.4036L4.46109 11.8834C6.12897 10.2155 8.34604 9.29605 10.7044 9.29376L13.1704 9.36619L8.79282 14.7556L1.94085 14.4036ZM10.8267 21.9067C10.5196 22.1628 10.2048 22.4256 9.91261 22.6659C9.34753 22.3598 8.83636 21.978 8.38964 21.5275C7.95698 21.0913 7.58872 20.5946 7.29176 20.0474L8.56184 18.5396C8.94587 19.0549 9.36622 19.5429 9.82032 20.0001C9.82067 20.0004 9.82103 20.0007 9.82138 20.0011C9.8215 20.0012 9.82161 20.0014 9.82173 20.0015C9.82191 20.0017 9.82208 20.0018 9.82226 20.002C10.3258 20.5087 10.8673 20.9737 11.4419 21.3942C11.239 21.5626 11.0312 21.7361 10.8267 21.9067ZM20.6178 19.1995C20.6178 21.5611 19.6981 23.7814 18.0282 25.4514L15.5079 27.9716L15.1562 21.1283L20.6177 16.8902V19.1995H20.6178ZM28.8094 1.74482C28.5733 6.56692 26.2504 11.03 22.4363 13.9898L13.2101 21.1493C12.445 20.7022 11.7318 20.1744 11.0792 19.5763L14.1897 16.4658C14.4194 16.2361 14.4194 15.8635 14.1897 15.6338C13.9599 15.404 13.5874 15.404 13.3577 15.6338L10.2501 18.7414C9.67876 18.1089 9.17274 17.4206 8.7419 16.6845L16.3067 7.37107C19.2031 3.8051 23.4938 1.59201 28.0786 1.29939L28.6264 1.26447C28.6982 1.26002 28.7462 1.29564 28.7684 1.31744C28.7904 1.33918 28.8269 1.38646 28.8234 1.45859L28.8094 1.74482Z" fill="#39CDCC"/>
</svg>
