<svg width="27" height="30" viewBox="0 0 27 30" fill="none" xmlns="http://www.w3.org/2000/svg">
<path d="M17.7115 16.288C20.3778 14.8035 22.1828 11.9602 22.1828 8.69258C22.1828 3.89056 18.2919 0 13.4902 0C8.68921 0 4.79697 3.89056 4.79697 8.69292C4.79697 11.9606 6.60236 14.8035 9.26832 16.2883C3.88685 18.0603 0.00101124 23.1243 0 29.1C0 29.5972 0.402809 30 0.9 30C1.39719 30 1.79966 29.5972 1.79966 29.1C1.81079 22.6436 7.03281 17.4206 13.4902 17.4091C19.947 17.4206 25.1687 22.6436 25.1798 29.1C25.1798 29.5972 25.5826 30 26.0798 30C26.577 30 26.9794 29.5972 26.9794 29.1C26.9784 23.1249 23.0926 18.061 17.7115 16.288ZM6.59596 8.69292C6.60202 4.88494 9.68326 1.80506 13.4902 1.79764C17.2982 1.80506 20.3778 4.88494 20.3845 8.69292C20.3774 12.4996 17.2982 15.5805 13.4902 15.5872C9.6836 15.5805 6.60202 12.4996 6.59596 8.69292Z" fill="#39CDCC"/>
</svg>
