<svg width="58" height="60" viewBox="0 0 58 60" fill="none" xmlns="http://www.w3.org/2000/svg">
<path d="M0 20C0 8.9543 8.9543 0 20 0H37.8182C48.8639 0 57.8182 8.9543 57.8182 20V40C57.8182 51.0457 48.8639 60 37.8182 60H20C8.95429 60 0 51.0457 0 40V20Z" fill="#D7FFFF"/>
<g clip-path="url(#clip0)">
<path d="M17.1055 30.5867C16.7544 30.5867 16.4695 30.8716 16.4695 31.2227C16.4695 31.5737 16.7544 31.8586 17.1055 31.8586C17.4565 31.8586 17.7414 31.5737 17.7414 31.2227C17.7414 30.8716 17.4565 30.5867 17.1055 30.5867Z" fill="#39CDCC" stroke="#39CDCC" stroke-width="0.1"/>
<path d="M40.9569 32.2546C41.6638 31.9993 42.453 32.1047 43.068 32.5366C43.6829 32.9683 44.05 33.6746 44.05 34.426C44.05 35.3679 43.4888 36.204 42.6186 36.5616L33.3027 40.9909L33.3025 40.991L33.2929 40.9954L40.9569 32.2546ZM40.9569 32.2546C40.9515 32.2566 40.9461 32.2586 40.9406 32.2608C40.9405 32.2608 40.9404 32.2609 40.9403 32.2609L35.4817 34.4026C35.4905 34.32 35.4953 34.2366 35.4953 34.1523C35.4953 32.8324 34.4215 31.7586 33.1016 31.7586H29.307C29.215 31.7586 29.1241 31.7348 29.044 31.6897L29.044 31.6897L25.9483 29.9485C25.3287 29.5993 24.6247 29.4148 23.9123 29.4148H20.0852V28.8789C20.0852 28.5277 19.8004 28.243 19.4492 28.243H14.5859C14.2347 28.243 13.95 28.5277 13.95 28.8789V39.4258C13.95 39.777 14.2347 40.0617 14.5859 40.0617H19.4492C19.8004 40.0617 20.0852 39.777 20.0852 39.4258V38.8898H20.4662L26.0475 41.1491L26.0475 41.1491C27.1473 41.5939 28.3061 41.8195 29.4916 41.8195C30.8124 41.8195 32.0914 41.5422 33.2927 40.9955L40.9569 32.2546ZM20.0852 37.618V30.6867H23.9123C24.4064 30.6867 24.8946 30.8146 25.3244 31.0568L25.3244 31.0568L28.4201 32.798L20.0852 37.618ZM20.0852 37.618H20.59C20.6718 37.618 20.7528 37.6338 20.8286 37.6644L20.8286 37.6645L26.5245 39.9701C26.5245 39.9701 26.5245 39.9701 26.5245 39.9701C27.472 40.3533 28.4702 40.5477 29.4916 40.5477C30.6279 40.5477 31.728 40.3095 32.7615 39.8398C32.7616 39.8397 32.7618 39.8397 32.7619 39.8396L42.0892 35.4049L20.0852 37.618ZM18.8133 38.7898H15.2219V29.5148H18.8133V38.7898ZM42.1259 35.3889C42.1136 35.3938 42.1013 35.3992 42.0892 35.4049L28.4201 32.7981C28.6901 32.9501 28.9968 33.0305 29.307 33.0305H33.1016C33.7201 33.0305 34.2234 33.5338 34.2234 34.1523C34.2234 34.5392 34.0215 34.8998 33.6926 35.1045C33.6926 35.1045 33.6926 35.1045 33.6926 35.1045C33.6457 35.123 33.6029 35.1467 33.5637 35.1739C33.4198 35.2394 33.2621 35.2742 33.1016 35.2742H27.1449C26.148 35.2742 25.3371 36.0852 25.3371 37.082C25.3371 37.4333 25.6218 37.718 25.973 37.718C26.3243 37.718 26.609 37.4333 26.609 37.082C26.609 36.7866 26.8495 36.5461 27.1449 36.5461H33.1016C33.502 36.5461 33.8954 36.4446 34.2426 36.255L41.3953 33.4485C41.3956 33.4484 41.3958 33.4484 41.3961 33.4483C41.7164 33.3351 42.0587 33.382 42.3372 33.5775C42.6176 33.7744 42.7781 34.0833 42.7781 34.426C42.7781 34.8524 42.5222 35.2302 42.1259 35.3889Z" fill="#39CDCC" stroke="#39CDCC" stroke-width="0.1"/>
<path d="M17.1055 32.9305C16.7542 32.9305 16.4695 33.2152 16.4695 33.5664V37.082C16.4695 37.4333 16.7542 37.718 17.1055 37.718C17.4567 37.718 17.7414 37.4333 17.7414 37.082V33.5664C17.7414 33.2152 17.4567 32.9305 17.1055 32.9305Z" fill="#39CDCC" stroke="#39CDCC" stroke-width="0.1"/>
<path d="M37.2031 23.5555C35.237 23.5555 33.6375 25.155 33.6375 27.1211C33.6375 29.0872 35.237 30.6867 37.2031 30.6867C39.1693 30.6867 40.7688 29.0872 40.7688 27.1211C40.7688 25.155 39.1693 23.5555 37.2031 23.5555ZM37.2031 29.4148C35.9384 29.4148 34.9094 28.3858 34.9094 27.1211C34.9094 25.8564 35.9384 24.8273 37.2031 24.8273C38.4679 24.8273 39.4969 25.8564 39.4969 27.1211C39.4969 28.3858 38.4679 29.4148 37.2031 29.4148Z" fill="#39CDCC" stroke="#39CDCC" stroke-width="0.1"/>
<path d="M34.8594 14.1805C32.8932 14.1805 31.2937 15.78 31.2937 17.7461C31.2937 19.7122 32.8932 21.3117 34.8594 21.3117C36.8255 21.3117 38.425 19.7122 38.425 17.7461C38.425 15.78 36.8255 14.1805 34.8594 14.1805ZM34.8594 20.0398C33.5946 20.0398 32.5656 19.0108 32.5656 17.7461C32.5656 16.4814 33.5946 15.4523 34.8594 15.4523C36.1241 15.4523 37.1531 16.4814 37.1531 17.7461C37.1531 19.0108 36.1241 20.0398 34.8594 20.0398Z" fill="#39CDCC" stroke="#39CDCC" stroke-width="0.1"/>
<path d="M27.8281 21.2117C25.862 21.2117 24.2625 22.8112 24.2625 24.7773C24.2625 26.7435 25.862 28.343 27.8281 28.343C29.7943 28.343 31.3938 26.7435 31.3938 24.7773C31.3938 22.8112 29.7943 21.2117 27.8281 21.2117ZM27.8281 27.0711C26.5634 27.0711 25.5344 26.0421 25.5344 24.7773C25.5344 23.5126 26.5634 22.4836 27.8281 22.4836C29.0929 22.4836 30.1219 23.5126 30.1219 24.7773C30.1219 26.0421 29.0929 27.0711 27.8281 27.0711Z" fill="#39CDCC" stroke="#39CDCC" stroke-width="0.1"/>
</g>
<defs>
<clipPath id="clip0">
<rect width="30" height="30" fill="white" transform="translate(14 13)"/>
</clipPath>
</defs>
</svg>
