<svg width="105" height="100" viewBox="0 0 105 100" fill="none" xmlns="http://www.w3.org/2000/svg">
<path d="M95.7756 41.5446C93.4425 41.5446 91.5513 43.436 91.5513 45.769V50.0238C91.545 61.1225 87.2168 71.5545 79.3643 79.3978C71.5175 87.2354 61.0904 91.5509 50.0007 91.5509C49.9926 91.5509 49.9844 91.5509 49.9762 91.5509C27.0647 91.5378 8.43565 72.8877 8.44873 49.976C8.45506 38.8775 12.7832 28.4455 20.6359 20.6018C28.4827 12.7642 38.91 8.44872 49.9995 8.44872C50.0077 8.44872 50.0158 8.44872 50.024 8.44872C55.8803 8.45199 61.5623 9.66239 66.9116 12.0458C69.0432 12.9956 71.5398 12.0374 72.4896 9.90647C73.4389 7.7755 72.4814 5.2783 70.3502 4.32853C63.913 1.4602 57.076 0.00388081 50.0287 0C50.0181 0 50.0099 0 49.9993 0C36.6557 0 24.1068 5.19374 14.665 14.6245C5.21581 24.0626 0.00776985 36.6158 8.2365e-06 49.9715C-0.00754912 63.3268 5.18579 75.8859 14.6243 85.335C24.0628 94.7842 36.6158 99.9922 49.9713 100C49.9817 100 49.9901 100 50.0007 100C63.3444 100 75.8932 94.8065 85.335 85.3755C94.7842 75.9372 99.9922 63.384 100 50.0262V45.7692C100 43.436 98.1088 41.5446 95.7756 41.5446Z" fill="#39CDCC"/>
<path d="M103.341 5.84019C101.691 4.19064 99.0161 4.19064 97.3664 5.84019L50.0003 53.206L39.2548 42.4605C37.6052 40.8107 34.9303 40.8107 33.2808 42.4605C31.631 44.1102 31.631 46.7849 33.2808 48.4347L47.0135 62.1674C47.8383 62.9924 48.9196 63.4048 50.0007 63.4048C51.0818 63.4048 52.1629 62.9924 52.9879 62.1674L103.341 11.8144C104.99 10.1646 104.99 7.48994 103.341 5.84019Z" fill="#39CDCC"/>
</svg>
