<svg width="22" height="17" viewBox="0 0 22 17" fill="none" xmlns="http://www.w3.org/2000/svg">
<g opacity="0.6">
<path d="M18.0328 3.9511L18.0328 3.95109C17.7504 3.67112 17.3072 3.62991 16.9772 3.85285L16.9772 3.85286C16.3926 4.24783 14.6344 5.43842 12.9434 6.60839C12.0979 7.19336 11.2691 7.7733 10.6121 8.24613C9.95709 8.71757 9.46844 9.08566 9.3074 9.24529L9.34026 9.27844L9.3074 9.2453C8.37384 10.1708 8.37384 11.6767 9.3074 12.6022L9.3426 12.5667L9.3074 12.6022C9.77413 13.0648 10.3872 13.2961 10.9999 13.2961C11.6126 13.2961 12.2256 13.0648 12.6924 12.6022L12.6598 12.5693L12.6924 12.6022C12.8534 12.4425 13.2248 11.9581 13.7003 11.3088C14.1773 10.6575 14.7623 9.83584 15.3524 8.99769C16.5326 7.32136 17.7336 5.57831 18.132 4.99884L18.132 4.99882C18.3571 4.67127 18.3154 4.23129 18.0328 3.9511ZM10.4827 11.4359L10.4827 11.4359C10.1978 11.1535 10.1978 10.6943 10.4824 10.4119C10.5408 10.3547 10.6877 10.2383 10.9109 10.0717C11.133 9.90591 11.4277 9.69244 11.779 9.44221C12.4286 8.9794 13.2712 8.39131 14.2041 7.74738C13.5548 8.67199 12.9618 9.50694 12.495 10.1508C12.2426 10.499 12.0273 10.7912 11.8601 11.0113C11.692 11.2325 11.5746 11.3781 11.517 11.436C11.2319 11.7186 10.7677 11.7185 10.4827 11.4359Z" fill="#545F7D" stroke="#545F7D" stroke-width="0.1"/>
<path d="M4.58101 14.4814L4.58101 14.4814L3.65889 14.9273C2.97231 13.6966 2.6125 12.3264 2.6125 10.9241C2.6125 9.90417 2.79873 8.92662 3.13918 8.02305L4.19536 8.52527L4.19537 8.52527C4.31121 8.58034 4.4336 8.60648 4.55418 8.60648C4.86358 8.60648 5.16108 8.43425 5.30415 8.13854L5.25914 8.11676L5.30415 8.13854C5.50291 7.72768 5.32794 7.23512 4.91405 7.03833L3.87355 6.54357C5.21685 4.40399 7.5128 2.9104 10.1688 2.65021V3.76011C10.1688 4.21588 10.5414 4.58459 11 4.58459C11.4587 4.58459 11.8313 4.21588 11.8313 3.76011V2.64956C12.7372 2.7372 13.614 2.96901 14.4472 3.34188C14.8652 3.529 15.3576 3.34477 15.5466 2.92976L15.5011 2.90903L15.5466 2.92976C15.7358 2.51439 15.5493 2.02606 15.1309 1.83883L15.1142 1.87618L15.1309 1.83883C13.8289 1.2562 12.439 0.960742 11 0.960742C8.31579 0.960742 5.7919 1.99705 3.89371 3.87876C1.99557 5.76053 0.95 8.26275 0.95 10.9241C0.95 12.8909 1.53891 14.8037 2.6528 16.4553L2.69426 16.4274L2.65281 16.4553C2.81176 16.691 3.07443 16.8215 3.34422 16.8215C3.46696 16.8215 3.5913 16.7945 3.70805 16.738L5.30962 15.9636C5.72218 15.764 5.89391 15.2704 5.69236 14.8608C5.49094 14.4515 4.99333 14.282 4.58101 14.4814Z" fill="#545F7D" stroke="#545F7D" stroke-width="0.1"/>
<path d="M18.299 16.7413L18.299 16.7413L16.6583 15.9668C16.2439 15.7712 16.0675 15.2792 16.2651 14.8678C16.4627 14.4565 16.9587 14.2824 17.3728 14.4779L17.3514 14.5231L17.3728 14.4779L18.3376 14.9334C19.0264 13.7012 19.3874 12.3285 19.3874 10.924C19.3874 9.73272 19.139 8.58322 18.6489 7.50713C18.4598 7.0918 18.6463 6.60347 19.0646 6.41625C19.4828 6.22904 19.975 6.41332 20.164 6.8284C20.164 6.8284 20.164 6.8284 20.164 6.82841L20.1185 6.84912C20.7034 8.13341 20.9999 9.5044 20.9999 10.924C20.9999 12.8807 20.4141 14.7838 19.3056 16.4273L18.299 16.7413ZM18.299 16.7413C18.4137 16.7955 18.5354 16.8214 18.6558 16.8214C18.9256 16.8214 19.1883 16.6907 19.3471 16.4552L18.299 16.7413Z" fill="#545F7D" stroke="#545F7D" stroke-width="0.1"/>
</g>
</svg>
