<svg width="310" height="268" viewBox="0 0 310 268" fill="none" xmlns="http://www.w3.org/2000/svg">
<g filter="url(#filter0_dd)">
<g clip-path="url(#clip0)">
<path d="M153.484 239.698C209.818 239.698 255.486 194.03 255.486 137.695C255.486 81.3609 209.818 35.6929 153.484 35.6929C97.1495 35.6929 51.4814 81.3609 51.4814 137.695C51.4814 194.03 97.1495 239.698 153.484 239.698Z" fill="#BAF4EE"/>
<path opacity="0.73" d="M236.658 162.091V196.474C232.892 201.713 228.635 206.625 224.051 211.209V162.091C224.051 161.764 217.829 156.688 213.081 152.922V150.63L218.812 149.156C221.104 148.502 223.56 148.829 225.852 149.648C226.834 150.139 227.817 150.466 228.963 150.794V155.214C233.711 159.308 236.658 161.764 236.658 162.091Z" fill="#7FD6CB"/>
<path d="M8.4209 6.87695L38.3831 77.1163L60.1589 62.0533L72.9297 80.5545L75.2219 49.4462L101.582 33.4009L8.4209 6.87695Z" fill="#FFB031"/>
<path d="M65.0707 58.7789L38.383 77.1164L60.1588 62.0534L72.9296 80.5547L75.2218 49.4464L32.98 24.396L65.0707 58.7789Z" fill="#FF9433"/>
<path d="M74.5669 57.1416L32.98 24.396L75.2218 49.4464L74.5669 57.1416Z" fill="#FF7733"/>
<path d="M73.4207 89.2323C73.257 87.9225 72.9295 86.4489 72.6021 85.1391L74.7305 84.6479C75.058 85.9578 75.3854 87.4313 75.7129 88.9049L73.4207 89.2323Z" fill="#00C8B7"/>
<path d="M48.698 136.877C45.5872 136.713 42.6401 135.731 40.1841 134.094L41.3302 132.293C43.4587 133.766 46.0783 134.585 48.8617 134.749L48.698 136.877ZM57.3756 135.24L56.3932 133.275C58.5217 132.129 60.8139 130.492 62.7786 128.2L64.4159 129.673C62.2874 132.129 59.8315 133.93 57.3756 135.24ZM34.1262 127.381C32.9801 124.925 32.3252 122.305 32.3252 119.686C32.3252 119.522 32.3252 119.195 32.3252 119.031V118.54L34.4537 118.703V119.031C34.4537 119.195 34.4537 119.358 34.4537 119.522C34.4537 121.814 34.9448 124.106 36.0909 126.235L34.1262 127.381ZM116.318 126.89V124.761C119.101 124.761 121.884 124.598 124.831 124.434L124.995 126.562C122.048 126.726 119.101 126.726 116.318 126.89ZM107.804 126.562L106.494 126.399C103.874 126.235 101.582 125.907 99.2899 125.416L99.6174 123.288C101.746 123.615 104.038 123.943 106.658 124.106L107.968 124.27L107.804 126.562ZM133.509 125.58L133.182 123.452C135.965 123.124 138.748 122.633 141.532 122.142L141.859 124.27C139.076 124.761 136.292 125.253 133.509 125.58ZM90.7761 123.452C88.3202 122.633 85.8642 121.487 83.8995 120.341C83.572 120.177 83.2446 120.013 82.9171 119.686L84.0632 117.885C84.3907 118.049 84.7181 118.212 85.0456 118.376C87.0103 119.522 89.3025 120.504 91.5947 121.323L90.7761 123.452ZM69.4914 122.633L67.6904 121.651C69.0003 119.195 70.3101 116.739 71.1287 114.119L73.0935 114.774C72.1111 117.394 70.965 120.013 69.4914 122.633ZM150.373 122.305L149.882 120.177C152.502 119.522 155.285 118.867 158.068 118.049L158.723 120.013C155.776 120.996 152.993 121.651 150.373 122.305ZM166.91 117.721L166.255 115.756C168.874 114.938 171.658 113.955 174.277 112.973L174.932 114.938C172.313 115.92 169.529 116.739 166.91 117.721ZM75.7131 114.774C73.7484 113.3 71.6199 111.827 69.3277 110.681L68.6728 110.353L69.6552 108.389C69.9826 108.552 70.1463 108.716 70.4738 108.716C72.9297 110.026 75.0582 111.663 77.0229 112.973L75.7131 114.774ZM37.5645 111.663L36.0909 110.19C37.8919 108.389 40.5116 106.915 43.9499 105.933L44.6048 107.897C41.3302 108.88 39.038 110.026 37.5645 111.663ZM60.8139 107.57C58.3579 107.079 55.902 106.751 53.4461 106.751H52.6275V104.623C55.5746 104.623 58.5217 104.787 61.305 105.441L60.8139 107.57ZM75.3856 106.26L73.2572 105.933C73.7484 103.149 74.0758 100.366 74.0758 97.5825H76.2043C76.2043 100.53 75.8768 103.313 75.3856 106.26Z" fill="#00C8B7"/>
<path d="M183.118 111.827L182.3 109.862C183.61 109.371 184.919 108.88 186.229 108.389L187.048 110.353C185.738 110.845 184.428 111.336 183.118 111.827Z" fill="#00C8B7"/>
<path d="M249.919 163.564C248.773 163.564 247.955 162.746 247.791 161.6C247.627 160.454 248.61 159.471 249.756 159.307C262.526 157.998 274.315 151.94 282.992 142.116C283.811 141.297 285.121 141.134 285.94 141.952C286.758 142.771 286.922 144.081 286.103 144.899C276.771 155.542 264 162.255 250.083 163.564C250.083 163.564 250.083 163.564 249.919 163.564Z" fill="#00C8B7"/>
<path d="M224.05 162.091L150.045 205.643L76.2041 162.091V161.928C76.2041 161.6 80.2973 158.162 86.519 153.25L86.6827 153.086C107.149 136.55 150.045 102.658 150.045 102.658C150.045 102.658 193.106 136.55 213.408 153.25C219.793 158.326 224.05 161.764 224.05 162.091Z" fill="#7A4C08"/>
<path d="M180.499 66.4741H100.763C93.8866 66.4741 88.3198 72.0409 88.3198 78.9175V199.585C88.3198 206.462 93.8866 212.028 100.763 212.028H200.801C207.677 212.028 213.244 206.462 213.244 199.585V99.056L180.499 66.4741Z" fill="white"/>
<path d="M180.499 86.6127C180.499 93.4892 186.065 99.056 192.942 99.056H213.08L180.499 66.4741V86.6127V86.6127Z" fill="#E6E8E8"/>
<path d="M139.075 86.9399H111.569C109.113 86.9399 107.148 88.9047 107.148 91.3606V118.867C107.148 121.323 109.113 123.288 111.569 123.288H139.075C141.531 123.288 143.496 121.323 143.496 118.867V91.3606C143.496 88.9047 141.531 86.9399 139.075 86.9399Z" fill="#82EBE3"/>
<path d="M176.897 133.275H110.75C108.786 133.275 107.148 134.913 107.148 136.877C107.148 138.842 108.786 140.479 110.75 140.479H176.897C178.861 140.479 180.499 138.842 180.499 136.877C180.499 134.913 178.861 133.275 176.897 133.275Z" fill="#D9DBDB"/>
<path d="M176.897 151.122H110.75C108.786 151.122 107.148 152.759 107.148 154.724C107.148 156.688 108.786 158.326 110.75 158.326H176.897C178.861 158.326 180.499 156.688 180.499 154.724C180.499 152.595 178.861 151.122 176.897 151.122Z" fill="#D9DBDB"/>
<path d="M146.935 168.313H110.915C108.95 168.313 107.312 169.95 107.312 171.915C107.312 173.88 108.95 175.517 110.915 175.517H146.935C148.899 175.517 150.537 173.88 150.537 171.915C150.373 169.787 148.899 168.313 146.935 168.313Z" fill="#D9DBDB"/>
<path d="M224.05 162.091V232.986C224.05 237.897 219.957 241.991 215.045 241.991H85.2091C80.2973 241.991 76.2041 237.897 76.2041 232.986V162.091L150.209 205.643L224.05 162.091Z" fill="#FFB031"/>
<path d="M221.594 239.371L173.949 191.726L150.045 205.807L126.141 191.726L78.4961 239.371C80.1334 241.172 82.4256 242.154 85.0452 242.154H215.045C217.665 242.154 219.957 241.008 221.594 239.371Z" fill="#FF9433"/>
<path d="M238.95 64.673C217.665 66.8014 200.637 84.3203 199.164 105.605C198.345 116.247 201.456 126.071 207.023 134.094C209.151 137.041 209.479 140.97 208.005 144.409L204.567 152.922L218.975 149.157C221.267 148.502 223.723 148.665 226.015 149.648C232.728 152.595 240.096 153.905 248.119 153.086C269.076 151.121 285.94 134.257 287.904 113.3C290.524 85.3027 267.111 62.0533 238.95 64.673Z" fill="#00C8B7"/>
<path d="M242.388 64.509C258.27 69.2571 269.731 83.8289 269.731 101.348C269.731 122.632 252.539 139.824 231.254 139.824C220.121 139.824 210.134 135.076 203.093 127.381C204.239 129.836 205.549 132.129 207.023 134.257C209.151 137.204 209.479 141.134 208.005 144.572L204.567 153.086L218.975 149.32C221.267 148.665 223.723 148.829 226.015 149.811C232.728 152.758 240.096 154.068 248.118 153.25C269.076 151.285 285.94 134.421 287.904 113.464C290.36 86.4485 268.912 63.8541 242.388 64.509Z" fill="#08B29D"/>
<path d="M10.8768 27.6702L20.5368 49.9372C21.028 51.0833 20.5368 52.3931 19.3907 52.8843L19.0632 53.0481C17.9171 53.5392 16.6073 53.0481 16.1161 51.902L6.78365 29.4712C6.29247 28.3251 6.94738 27.0153 8.09348 26.5241C9.23957 26.0329 10.5494 26.5241 10.8768 27.6702Z" fill="#FFB031"/>
<path d="M49.0253 184.358C45.0958 184.358 41.8213 187.632 41.8213 191.562C41.8213 195.491 45.0958 198.766 49.0253 198.766C52.9548 198.766 56.2293 195.491 56.2293 191.562C56.0656 187.632 52.9548 184.358 49.0253 184.358ZM49.0253 194.345C47.388 194.345 46.0782 193.036 46.0782 191.398C46.0782 189.761 47.388 188.451 49.0253 188.451C50.6626 188.451 51.9724 189.761 51.9724 191.398C51.8087 193.036 50.4989 194.345 49.0253 194.345Z" fill="#BAF4EE"/>
<path d="M240.096 213.174C236.167 213.174 232.892 216.448 232.892 220.378C232.892 224.307 236.167 227.582 240.096 227.582C244.025 227.582 247.3 224.307 247.3 220.378C247.3 216.448 244.025 213.174 240.096 213.174ZM240.096 223.325C238.459 223.325 237.149 222.015 237.149 220.378C237.149 218.741 238.459 217.431 240.096 217.431C241.733 217.431 243.043 218.741 243.043 220.378C243.043 222.015 241.733 223.325 240.096 223.325Z" fill="#BAF4EE"/>
<path d="M298.383 102.494C295.436 102.494 292.98 104.95 292.98 107.897C292.98 110.844 295.436 113.3 298.383 113.3C301.33 113.3 303.786 110.844 303.786 107.897C303.95 104.95 301.494 102.494 298.383 102.494ZM298.383 110.189C297.237 110.189 296.091 109.207 296.091 107.897C296.091 106.751 297.073 105.605 298.383 105.605C299.529 105.605 300.675 106.587 300.675 107.897C300.675 109.043 299.693 110.189 298.383 110.189Z" fill="#BAF4EE"/>
<path d="M202.275 15.063C199.164 15.063 196.544 17.6826 196.544 20.7935C196.544 23.9043 199.164 26.5239 202.275 26.5239C205.386 26.5239 208.005 23.9043 208.005 20.7935C208.005 17.6826 205.549 15.063 202.275 15.063ZM202.275 23.2494C200.965 23.2494 199.983 22.267 199.983 20.9572C199.983 19.6474 200.965 18.665 202.275 18.665C203.585 18.665 204.567 19.6474 204.567 20.9572C204.567 22.1033 203.585 23.2494 202.275 23.2494Z" fill="#BAF4EE"/>
<path d="M17.5897 161.763C20.9354 161.763 23.6476 159.051 23.6476 155.705C23.6476 152.36 20.9354 149.647 17.5897 149.647C14.244 149.647 11.5317 152.36 11.5317 155.705C11.5317 159.051 14.244 161.763 17.5897 161.763Z" fill="#BAF4EE"/>
<path d="M261.217 178.627C263.658 178.627 265.637 176.648 265.637 174.207C265.637 171.765 263.658 169.786 261.217 169.786C258.775 169.786 256.796 171.765 256.796 174.207C256.796 176.648 258.775 178.627 261.217 178.627Z" fill="#BAF4EE"/>
<path d="M115.008 29.7986C118.534 29.7986 121.393 26.9398 121.393 23.4132C121.393 19.8867 118.534 17.0278 115.008 17.0278C111.481 17.0278 108.623 19.8867 108.623 23.4132C108.623 26.9398 111.481 29.7986 115.008 29.7986Z" fill="#BAF4EE"/>
<path d="M149.554 260.164C152.177 260.164 154.302 258.038 154.302 255.416C154.302 252.794 152.177 250.668 149.554 250.668C146.932 250.668 144.806 252.794 144.806 255.416C144.806 258.038 146.932 260.164 149.554 260.164Z" fill="#BAF4EE"/>
<path d="M240.587 52.8845C243.662 52.8845 246.154 50.3922 246.154 47.3177C246.154 44.2433 243.662 41.751 240.587 41.751C237.513 41.751 235.021 44.2433 235.021 47.3177C235.021 50.3922 237.513 52.8845 240.587 52.8845Z" fill="#BAF4EE"/>
<path d="M44.9321 90.8691C46.6502 90.8691 48.0429 89.4764 48.0429 87.7583C48.0429 86.0402 46.6502 84.6475 44.9321 84.6475C43.2141 84.6475 41.8213 86.0402 41.8213 87.7583C41.8213 89.4764 43.2141 90.8691 44.9321 90.8691Z" fill="#BAF4EE"/>
<path d="M300.348 85.6298C303.332 85.6298 305.751 83.2108 305.751 80.2267C305.751 77.2427 303.332 74.8237 300.348 74.8237C297.364 74.8237 294.945 77.2427 294.945 80.2267C294.945 83.2108 297.364 85.6298 300.348 85.6298Z" fill="#BAF4EE"/>
<path d="M14.6424 110.189C16.5413 110.189 18.0807 108.65 18.0807 106.751C18.0807 104.852 16.5413 103.312 14.6424 103.312C12.7435 103.312 11.2041 104.852 11.2041 106.751C11.2041 108.65 12.7435 110.189 14.6424 110.189Z" fill="#BAF4EE"/>
<path d="M158.396 5.40326L160.524 3.2748C161.343 2.45616 161.343 1.31006 160.524 0.491421C159.705 -0.327219 158.559 -0.327219 157.741 0.491421L155.612 2.61988L153.484 0.491421C152.665 -0.327219 151.519 -0.327219 150.7 0.491421C149.882 1.31006 149.882 2.45616 150.7 3.2748L152.993 5.40326L150.864 7.53172C150.045 8.35036 150.045 9.49646 150.864 10.3151C151.683 11.1337 152.829 11.1337 153.648 10.3151L155.612 8.18663L157.741 10.3151C158.559 11.1337 159.705 11.1337 160.524 10.3151C161.343 9.49646 161.343 8.35036 160.524 7.53172L158.396 5.40326Z" fill="#BAF4EE"/>
<path d="M12.1866 70.4033L14.3151 68.2748C15.1337 67.4562 15.1337 66.3101 14.3151 65.4914C13.4965 64.6728 12.3504 64.6728 11.5317 65.4914L9.40326 67.6199L7.2748 65.4914C6.45616 64.6728 5.31006 64.6728 4.49142 65.4914C3.67278 66.3101 3.67278 67.4562 4.49142 68.2748L6.78361 70.4033L4.65515 72.5317C3.83651 73.3504 3.83651 74.4965 4.65515 75.3151C5.47379 76.1337 6.61988 76.1337 7.43852 75.3151L9.56699 73.1866L11.6954 75.3151C12.5141 76.1337 13.6602 76.1337 14.4788 75.3151C15.2975 74.4965 15.2975 73.3504 14.4788 72.5317L12.1866 70.4033Z" fill="#BAF4EE"/>
<path d="M265.474 201.549L267.275 199.748C267.93 199.093 267.93 198.111 267.275 197.456C266.62 196.801 265.637 196.801 264.983 197.456L263.182 199.257L261.381 197.456C260.726 196.801 259.743 196.801 259.088 197.456C258.433 198.111 258.433 199.093 259.088 199.748L260.889 201.549L259.088 203.35C258.433 204.005 258.433 204.988 259.088 205.642C259.743 206.297 260.726 206.297 261.381 205.642L263.182 203.841L264.983 205.642C265.637 206.297 266.62 206.297 267.275 205.642C267.93 204.988 267.93 204.005 267.275 203.35L265.474 201.549Z" fill="#BAF4EE"/>
<path fill-rule="evenodd" clip-rule="evenodd" d="M256.047 94.2924C254.988 94.1267 253.923 94.3653 253.052 94.9619L230.369 110.581L221.622 99.4328C220.977 98.6108 220.047 98.0638 218.992 97.8987C217.898 97.7274 216.806 97.9813 215.916 98.6217C215.049 99.2461 214.493 100.165 214.346 101.202C214.2 102.243 214.486 103.282 215.144 104.122L226.3 118.344C226.944 119.17 227.879 119.714 228.934 119.879C229.993 120.045 231.053 119.813 231.933 119.21L257.829 101.377C258.712 100.774 259.291 99.871 259.46 98.8374C259.635 97.8006 259.377 96.7585 258.735 95.8941C258.089 95.0291 257.134 94.4624 256.047 94.2924Z" fill="white"/>
</g>
</g>
<defs>
<filter id="filter0_dd" x="0" y="0" width="309.751" height="268" filterUnits="userSpaceOnUse" color-interpolation-filters="sRGB">
<feFlood flood-opacity="0" result="BackgroundImageFix"/>
<feColorMatrix in="SourceAlpha" type="matrix" values="0 0 0 0 0 0 0 0 0 0 0 0 0 0 0 0 0 0 127 0"/>
<feOffset dy="4"/>
<feGaussianBlur stdDeviation="2"/>
<feColorMatrix type="matrix" values="0 0 0 0 0 0 0 0 0 0 0 0 0 0 0 0 0 0 0.25 0"/>
<feBlend mode="normal" in2="BackgroundImageFix" result="effect1_dropShadow"/>
<feColorMatrix in="SourceAlpha" type="matrix" values="0 0 0 0 0 0 0 0 0 0 0 0 0 0 0 0 0 0 127 0"/>
<feOffset dy="4"/>
<feGaussianBlur stdDeviation="2"/>
<feColorMatrix type="matrix" values="0 0 0 0 0 0 0 0 0 0 0 0 0 0 0 0 0 0 0.25 0"/>
<feBlend mode="normal" in2="effect1_dropShadow" result="effect2_dropShadow"/>
<feBlend mode="normal" in="SourceGraphic" in2="effect2_dropShadow" result="shape"/>
</filter>
<clipPath id="clip0">
<rect width="301.751" height="260" fill="white" transform="translate(4)"/>
</clipPath>
</defs>
</svg>
