<svg width="16" height="10" viewBox="0 0 16 10" fill="none" xmlns="http://www.w3.org/2000/svg">
<path d="M15.9695 0.858279C15.9696 0.858279 15.9696 0.858319 15.9696 0.858368C15.9696 0.96142 15.886 1.04495 15.7831 1.04495H0.18649C0.0833969 1.04495 0 0.961371 0 0.858279V0.186667C0 0.0835744 0.0835744 0 0.18649 0H15.783C15.886 0 15.9694 0.0835744 15.9694 0.186667V0.85819C15.9694 0.858239 15.9695 0.858279 15.9695 0.858279ZM14.1038 3.17174C14.1038 3.06865 14.0203 2.98526 13.9173 2.98526H2.0521C1.949 2.98526 1.86561 3.06883 1.86561 3.17174V3.84336C1.86561 3.94645 1.94918 4.02985 2.0521 4.02985H13.9173C14.0204 4.02985 14.1038 3.94627 14.1038 3.84336V3.17174ZM12.2384 6.15664C12.2384 6.05355 12.1548 5.97015 12.0517 5.97015H3.9177C3.81461 5.97015 3.73104 6.05373 3.73104 6.15664V6.82826C3.73104 6.93135 3.81461 7.01475 3.9177 7.01475H12.0517C12.1548 7.01475 12.2384 6.93117 12.2384 6.82826V6.15664ZM10.3727 9.14172C10.3728 9.14172 10.3728 9.14168 10.3728 9.14163C10.3728 9.03858 10.2892 8.95505 10.1863 8.95505H5.78331C5.68022 8.95505 5.59682 9.03863 5.59682 9.14172V9.81333C5.59682 9.91643 5.6804 10 5.78331 10H10.1861C10.2892 10 10.3726 9.91643 10.3726 9.81333V9.14181C10.3726 9.14176 10.3727 9.14172 10.3727 9.14172Z" fill="#39CDCC"/>
</svg>
