<svg width="7" height="10" viewBox="0 0 7 10" fill="none" xmlns="http://www.w3.org/2000/svg">
<path d="M3.396 0.96C4.228 0.96 4.896 1.144 5.4 1.512C5.912 1.872 6.168 2.38 6.168 3.036C6.168 3.716 5.96 4.24 5.544 4.608C5.128 4.976 4.58 5.196 3.9 5.268L3.864 6.48H2.64L2.616 4.668C3.4 4.572 3.96 4.412 4.296 4.188C4.632 3.956 4.8 3.632 4.8 3.216C4.8 2.864 4.672 2.588 4.416 2.388C4.168 2.188 3.8 2.088 3.312 2.088C2.832 2.088 2.444 2.22 2.148 2.484C1.852 2.748 1.68 3.116 1.632 3.588L0.444 3.024C0.572 2.4 0.888 1.9 1.392 1.524C1.904 1.148 2.572 0.96 3.396 0.96ZM3.252 7.404C3.524 7.404 3.74 7.484 3.9 7.644C4.06 7.796 4.14 8 4.14 8.256C4.14 8.52 4.06 8.728 3.9 8.88C3.74 9.032 3.524 9.108 3.252 9.108C2.972 9.108 2.752 9.032 2.592 8.88C2.432 8.728 2.352 8.52 2.352 8.256C2.352 8 2.432 7.796 2.592 7.644C2.76 7.484 2.98 7.404 3.252 7.404Z" fill="white"/>
</svg>
