<svg width="738" height="448" viewBox="0 0 738 448" fill="none" xmlns="http://www.w3.org/2000/svg">
<path d="M120.152 408.267C119.091 408.267 92.3414 405.082 91.0676 380.243C89.7939 355.405 106.99 349.248 102.319 321.437C97.8611 293.627 85.9725 285.772 112.51 265.604C112.51 265.604 124.186 257.536 124.823 246.072C125.46 232.485 149.024 216.563 164.947 225.692C180.869 234.821 177.048 248.832 163.461 271.76C149.874 294.476 163.036 298.509 165.584 305.94C168.131 313.37 174.288 321.013 160.489 338.633C146.689 356.254 163.036 377.696 151.36 394.68C151.36 394.467 140.957 406.993 120.152 408.267Z" fill="#39CDCC"/>
<path d="M124.398 446.268C125.035 446.055 125.247 445.631 125.247 444.994C110.811 368.992 140.108 265.391 140.532 264.33C140.745 263.693 140.32 263.056 139.683 262.844C139.046 262.631 138.409 263.056 138.197 263.693C137.985 264.754 108.476 368.992 122.912 445.418C123.124 446.055 123.761 446.48 124.398 446.268Z" fill="#009DB0"/>
<path d="M130.342 305.091C130.342 305.091 130.555 305.091 130.342 305.091C131.192 304.666 131.404 304.029 131.192 303.605C131.192 303.392 125.247 290.018 122.7 278.554C122.487 277.917 122.063 277.492 121.426 277.704C120.789 277.917 120.364 278.341 120.577 278.978C123.124 290.654 129.069 304.241 129.281 304.454C129.281 304.878 129.918 305.091 130.342 305.091Z" fill="#009DB0"/>
<path d="M126.521 328.019C126.734 328.019 126.734 327.806 126.946 327.806C132.678 323.136 146.902 314.219 147.114 314.219C147.751 313.795 147.751 313.158 147.539 312.733C147.114 312.096 146.477 312.096 146.053 312.309C145.416 312.733 131.404 321.225 125.672 326.108C125.248 326.533 125.035 327.169 125.46 327.594C125.672 328.019 126.097 328.231 126.521 328.019Z" fill="#009DB0"/>
<path d="M123.337 350.522H123.549C124.186 350.31 124.398 349.461 123.974 349.036L115.906 333.326C115.694 332.689 114.845 332.477 114.42 332.901C113.784 333.114 113.571 333.963 113.996 334.388L122.063 350.097C122.275 350.31 122.7 350.522 123.337 350.522Z" fill="#009DB0"/>
<path d="M562.701 414.822C562.701 414.822 519.515 396.95 540.876 313.163C541.108 313.395 591.724 353.316 562.701 414.822Z" fill="#009DB0"/>
<path d="M560.148 411.804C560.148 411.804 538.787 409.948 517.426 358.422C517.193 358.422 548.306 369.563 560.148 411.804Z" fill="#018BA0"/>
<path d="M562.934 414.822C562.934 414.822 516.497 359.118 588.474 291.81C588.474 291.81 630.267 385.113 562.934 414.822Z" fill="#00C0CD"/>
<path d="M562.702 421.553H562.47C561.773 421.321 561.309 420.624 561.309 419.928L582.67 312.931C582.902 312.234 583.598 311.77 584.295 311.77C584.991 312.002 585.456 312.698 585.456 313.395L564.095 420.392C563.863 421.088 563.398 421.553 562.702 421.553Z" fill="#009DB0"/>
<path d="M577.329 348.209C576.632 348.209 576.168 347.745 575.936 347.281C575.704 346.585 576.168 345.888 576.865 345.656L592.421 340.782C593.118 340.55 593.814 341.014 594.046 341.711C594.278 342.407 593.814 343.103 593.118 343.335L577.561 348.209C577.561 348.209 577.329 348.209 577.329 348.209Z" fill="#009DB0"/>
<path d="M569.435 387.666C568.738 387.666 568.274 387.202 568.042 386.738C567.81 386.042 568.274 385.345 568.971 385.113L584.527 380.239C585.223 380.007 585.92 380.471 586.152 381.167C586.384 381.864 585.92 382.56 585.223 382.792L569.667 387.666C569.667 387.666 569.667 387.666 569.435 387.666Z" fill="#009DB0"/>
<path d="M572.685 370.955C572.221 370.955 571.989 370.723 571.757 370.491L557.129 354.244C556.665 353.78 556.665 352.851 557.129 352.387C557.593 351.923 558.522 351.923 558.987 352.387L573.614 368.634C574.079 369.098 574.079 370.027 573.614 370.491C573.382 370.955 573.15 370.955 572.685 370.955Z" fill="#009DB0"/>
<path d="M573.847 410.644H547.146C545.985 410.644 545.288 411.572 545.288 412.733L550.396 443.138C550.628 444.066 551.325 444.53 552.254 444.53H569.9C570.828 444.53 571.525 443.834 571.757 442.906L575.704 412.501C575.704 411.572 575.008 410.644 573.847 410.644Z" fill="#01052A"/>
<path d="M422.463 320.358H281.062V447.083H422.463V320.358Z" fill="#84B4FE"/>
<path d="M338.876 181.563L343.056 208.254L360.237 204.773L351.647 168.797L338.876 181.563Z" fill="#0CA8E5"/>
<path d="M338.876 182.723C350.545 182.723 360.005 173.267 360.005 161.602C360.005 149.938 350.545 140.481 338.876 140.481C327.207 140.481 317.748 149.938 317.748 161.602C317.748 173.267 327.207 182.723 338.876 182.723Z" fill="#0CA8E5"/>
<path d="M296.619 438.728C296.387 437.567 295.226 408.091 295.226 408.091L279.669 408.323L280.83 438.96L296.619 438.728Z" fill="#0CA8E5"/>
<path d="M254.129 445.923L297.78 445.459L297.547 431.997L267.363 432.229C260.166 432.461 254.129 438.496 254.129 445.923Z" fill="#1E1A1E"/>
<path d="M330.053 325.928H283.617L299.87 309.217L301.03 413.197L273.633 414.125L267.364 310.377C266.899 301.558 273.401 294.131 282.224 293.666C282.456 293.666 282.92 293.666 283.152 293.666H283.617H330.053V325.928V325.928Z" fill="#052E47"/>
<path d="M291.046 265.582C289.189 265.582 287.099 265.118 285.242 263.958C280.134 260.708 278.508 253.977 281.527 248.871L314.265 195.257C317.515 190.15 324.249 188.526 329.357 191.543C334.465 194.792 336.09 201.523 333.072 206.629L300.334 260.244C298.476 263.726 294.761 265.582 291.046 265.582Z" fill="#EFBD65"/>
<path d="M325.177 189.918H375.097C382.294 189.918 387.867 195.953 387.635 203.148L378.115 287.4L318.676 286.935L312.871 203.38C312.175 195.953 317.979 189.918 325.177 189.918Z" fill="#F7C869"/>
<path d="M161.952 447.083H161.72C160.559 446.851 159.862 445.923 160.094 444.762L186.563 289.953C186.795 288.792 187.724 288.096 188.885 288.328C190.046 288.56 190.743 289.489 190.51 290.649L164.041 445.459C163.809 446.387 162.881 447.083 161.952 447.083Z" fill="#214A81"/>
<path d="M228.124 446.387C227.195 446.387 226.267 445.691 226.034 444.762L199.565 290.649C199.333 289.489 200.03 288.56 201.191 288.328C202.352 288.096 203.28 288.792 203.513 289.953L229.982 444.066C230.214 445.227 229.517 446.155 228.356 446.387H228.124Z" fill="#1A3E66"/>
<path d="M401.334 445.923H401.101C399.94 445.691 399.244 444.762 399.476 443.602L425.945 289.953C426.177 288.792 427.106 288.096 428.267 288.328C429.428 288.56 430.124 289.489 429.892 290.649L403.423 444.298C403.191 445.227 402.262 445.923 401.334 445.923Z" fill="#214A81"/>
<path d="M467.506 445.923C466.578 445.923 465.649 445.227 465.417 444.298L438.948 290.649C438.716 289.489 439.412 288.56 440.573 288.328C441.734 288.096 442.663 288.792 442.895 289.953L469.364 443.602C469.596 444.762 468.9 445.691 467.739 445.923C467.739 445.923 467.739 445.923 467.506 445.923Z" fill="#1A3E66"/>
<path d="M344.217 438.728C343.985 437.567 344.681 408.091 344.681 408.091L329.125 408.323L328.428 438.96L344.217 438.728Z" fill="#0CA8E5"/>
<path d="M301.727 445.923L345.378 445.459L345.145 431.997L314.962 432.229C307.764 432.461 301.727 438.496 301.727 445.923Z" fill="#1E1A1E"/>
<path d="M308.924 266.975C311.478 261.869 317.515 259.78 322.623 262.333C324.248 263.261 325.642 264.422 326.57 265.814L341.894 266.511L347.235 276.723L325.874 278.58C322.855 281.829 317.979 282.99 313.8 280.901C308.46 278.116 306.37 272.081 308.924 266.975Z" fill="#0CA8E5"/>
<path d="M366.971 323.143L320.766 333.123L320.302 307.36C320.302 300.397 325.874 294.595 333.072 294.595H380.902V309.449C380.67 316.876 375.562 321.518 366.971 323.143Z" fill="#03345F"/>
<path d="M352.343 308.753L349.557 417.839H322.856L320.302 317.34L352.343 308.753Z" fill="#03345F"/>
<path d="M362.095 280.901H305.209V274.402H362.095C363.952 274.402 365.345 275.795 365.345 277.652C365.345 279.508 363.72 280.901 362.095 280.901Z" fill="#CFD1D3"/>
<path d="M312.639 280.901H237.179C232.768 280.901 229.053 278.116 227.892 273.938L213.264 221.252C211.871 216.61 215.586 211.968 220.23 211.968H289.653C292.439 211.968 294.993 213.824 295.922 216.61L312.639 280.901Z" fill="#E2E4E9"/>
<path d="M261.094 257.691C265.069 257.691 268.292 254.47 268.292 250.496C268.292 246.522 265.069 243.301 261.094 243.301C257.119 243.301 253.896 246.522 253.896 250.496C253.896 254.47 257.119 257.691 261.094 257.691Z" fill="white"/>
<path d="M339.109 281.597L338.876 259.548L373.24 259.084L365.81 203.148C365.113 197.113 369.293 191.543 375.329 190.847C381.366 190.15 386.706 194.56 387.403 200.595L396.226 268.832C396.69 271.849 395.529 275.098 393.672 277.419C391.582 279.74 388.564 281.133 385.546 281.133L339.109 281.597Z" fill="#FFD474"/>
<path d="M491.653 280.901H157.076V296.684H491.653V280.901Z" fill="#214A81"/>
<path d="M317.747 151.39C317.747 151.39 316.587 161.602 346.77 152.55L350.718 166.476C350.718 166.476 356.29 187.597 356.29 184.812C356.29 182.259 376.258 142.802 343.984 136.304C313.568 130.269 317.747 151.39 317.747 151.39Z" fill="#072042"/>
<path d="M351.634 168.975C354.671 168.48 356.732 165.617 356.237 162.58C355.742 159.544 352.878 157.484 349.84 157.979C346.803 158.474 344.742 161.336 345.237 164.373C345.732 167.409 348.596 169.47 351.634 168.975Z" fill="#0CA8E5"/>
<path d="M642.808 445.381L120.192 448C119.477 448 119 447.524 119 446.81C119 446.095 119.477 445.619 120.192 445.619L642.808 443C643.523 443 644 443.476 644 444.19C643.762 444.905 643.285 445.381 642.808 445.381Z" fill="#39CDCC"/>
<path d="M437.554 250.496H412.246C411.782 250.496 411.55 250.96 411.55 251.192V270.456C411.55 276.027 415.961 280.437 421.534 280.437H428.267C433.84 280.437 438.251 276.027 438.251 270.456V251.424C438.483 250.96 438.019 250.496 437.554 250.496Z" fill="white"/>
<path d="M434.536 277.419C440.341 274.17 450.092 264.654 448.467 257.923C448.003 256.066 446.842 254.906 445.216 253.977C441.501 252.121 435.929 254.442 435.465 254.674L437.322 258.387C438.715 257.923 441.734 256.995 443.359 257.691C443.591 257.923 444.056 258.155 444.288 258.851C445.216 262.797 437.554 270.921 432.446 273.938L434.536 277.419Z" fill="white"/>
<path opacity="0.1" d="M655.638 55H408V213.273H655.638V55Z" fill="white"/>
<path opacity="0.2" d="M625.928 91.2192H623.937V186.646H625.928V91.2192Z" fill="white"/>
<path opacity="0.2" d="M597.048 91.2192H595.056V186.646H597.048V91.2192Z" fill="white"/>
<path opacity="0.2" d="M568.168 91.2192H566.176V186.646H568.168V91.2192Z" fill="white"/>
<path opacity="0.2" d="M539.288 91.2192H537.296V186.646H539.288V91.2192Z" fill="white"/>
<path opacity="0.2" d="M510.408 91.2192H508.416V186.646H510.408V91.2192Z" fill="white"/>
<path opacity="0.2" d="M481.528 91.2192H479.536V186.646H481.528V91.2192Z" fill="white"/>
<path d="M646.344 162.665C643.024 147.285 639.207 132.069 634.393 117.019C633.231 113.546 632.236 110.073 631.074 106.6C630.244 104.285 628.916 101.969 626.426 100.812C621.115 98.4962 616.302 103.292 614.476 107.758C613.148 110.9 612.318 114.373 611.322 117.515C610.493 120.162 609.663 126.115 606.675 127.438C602.692 129.092 600.368 123.635 599.704 120.988C598.708 117.846 597.878 114.704 596.55 111.727C594.559 107.262 591.737 99.9846 585.762 100.646C580.617 101.308 576.633 106.104 574.475 110.569C572.318 115.531 571.654 120.988 570.99 126.446C570.16 134.385 569.33 142.488 568.666 150.427C567.836 158.2 567.504 166.469 564.849 173.912C562.857 179.535 558.21 185.985 551.405 184.331C544.268 182.677 540.616 174.738 537.794 168.785C534.641 162.169 531.985 155.058 529.994 147.946C526.01 134.385 523.52 120.327 520.533 106.435C518.873 98.6615 517.213 90.5577 514.724 82.95C512.732 77.1615 508.582 70.8769 501.611 71.5385C494.474 72.3654 492.151 79.8077 491.321 85.7615C490.159 94.6923 488.997 103.623 488.001 112.388C487.669 115.531 492.483 115.531 492.815 112.388C493.81 104.781 494.806 97.1731 495.636 89.5654C496.134 86.0923 496.134 82.2885 497.96 79.1462C500.284 75.1769 504.599 75.5077 507.255 78.8154C509.246 81.2962 510.076 84.7692 510.906 87.7462C511.902 91.0538 512.732 94.3615 513.396 97.8346C514.89 104.45 516.217 110.9 517.545 117.515C520.201 130.746 523.022 144.142 527.504 156.877C529.662 162.996 532.151 168.95 535.139 174.573C537.794 179.7 541.28 184.827 546.591 187.473C557.38 192.765 566.011 184 569.33 174.408C571.488 167.958 572.152 160.846 572.816 154.065C573.646 146.458 574.309 139.015 575.139 131.408C575.803 125.454 575.969 119.335 577.961 113.712C578.791 111.231 580.119 108.915 582.11 107.096C582.94 106.269 584.6 104.946 585.762 104.946C587.92 104.946 589.081 107.923 589.911 109.412C591.405 112.223 592.733 115.365 593.729 118.508C594.559 121.319 595.223 124.296 596.882 126.777C599.372 130.746 604.517 133.558 608.999 131.077C614.31 128.1 615.472 119.831 617.132 114.538C618.127 111.562 619.123 105.112 622.941 104.45C626.592 103.954 627.754 111.892 628.584 114.373C633.729 130.415 638.045 146.623 641.53 163.162C642.194 166.965 647.008 165.808 646.344 162.665Z" fill="white"/>
<path d="M643.356 65.9154V77.4923L637.381 83.2808H625.928V65.9154H643.356Z" fill="#E9B200"/>
<path d="M643.356 77.4923L637.38 83.2808V77.4923H643.356Z" fill="#E9B200"/>
<path d="M618.293 65.9154H600.7V83.4462H618.293V65.9154Z" fill="#39CDCC"/>
<path opacity="0.2" d="M646.343 197.562H456.631V199.546H646.343V197.562Z" fill="white"/>
<path opacity="0.2" d="M456.631 79.8077H421.112V83.2808H456.631V79.8077Z" fill="white"/>
<path opacity="0.2" d="M456.631 89.5654H421.112V93.0384H456.631V89.5654Z" fill="white"/>
<path opacity="0.2" d="M456.631 99.3231H421.112V102.796H456.631V99.3231Z" fill="white"/>
<path opacity="0.2" d="M456.631 109.081H421.112V112.554H456.631V109.081Z" fill="white"/>
<path d="M427.088 72.8615C428.829 72.8615 430.241 71.4547 430.241 69.7192C430.241 67.9838 428.829 66.5769 427.088 66.5769C425.346 66.5769 423.934 67.9838 423.934 69.7192C423.934 71.4547 425.346 72.8615 427.088 72.8615Z" fill="#5202B5"/>
<path d="M438.872 72.8615C440.614 72.8615 442.026 71.4547 442.026 69.7192C442.026 67.9838 440.614 66.5769 438.872 66.5769C437.131 66.5769 435.719 67.9838 435.719 69.7192C435.719 71.4547 437.131 72.8615 438.872 72.8615Z" fill="#5202B5"/>
<path d="M450.656 72.8615C452.398 72.8615 453.81 71.4547 453.81 69.7192C453.81 67.9838 452.398 66.5769 450.656 66.5769C448.915 66.5769 447.503 67.9838 447.503 69.7192C447.503 71.4547 448.915 72.8615 450.656 72.8615Z" fill="#5202B5"/>
<path opacity="0.2" d="M733.405 30.1266C735.937 26.8354 737.709 22.7848 737.709 18.481C737.709 8.35443 729.354 0 719.228 0H679.481C669.354 0 661 8.35443 661 18.481C661 28.6076 669.354 36.962 679.481 36.962H719.228C722.266 36.962 725.051 36.2025 727.329 34.9367L736.443 40L733.405 30.1266Z" fill="#4C4C4C"/>
<path d="M713.152 22.5317C715.389 22.5317 717.203 20.7182 717.203 18.481C717.203 16.2439 715.389 14.4304 713.152 14.4304C710.915 14.4304 709.102 16.2439 709.102 18.481C709.102 20.7182 710.915 22.5317 713.152 22.5317Z" fill="white"/>
<path d="M699.481 22.5317C701.718 22.5317 703.532 20.7182 703.532 18.481C703.532 16.2439 701.718 14.4304 699.481 14.4304C697.244 14.4304 695.431 16.2439 695.431 18.481C695.431 20.7182 697.244 22.5317 699.481 22.5317Z" fill="white"/>
<path d="M685.557 22.5317C687.794 22.5317 689.608 20.7182 689.608 18.481C689.608 16.2439 687.794 14.4304 685.557 14.4304C683.32 14.4304 681.506 16.2439 681.506 18.481C681.506 20.7182 683.32 22.5317 685.557 22.5317Z" fill="white"/>
<g opacity="0.6">
<path opacity="0.2" d="M255.677 121.159C258.044 118.083 259.7 114.297 259.7 110.274C259.7 100.809 251.891 93 242.426 93H205.274C195.809 93 188 100.809 188 110.274C188 119.74 195.809 127.549 205.274 127.549H242.426C245.265 127.549 247.868 126.839 249.998 125.655L258.517 130.388L255.677 121.159Z" fill="white"/>
<path d="M236.747 114.06C238.838 114.06 240.533 112.365 240.533 110.274C240.533 108.183 238.838 106.488 236.747 106.488C234.656 106.488 232.96 108.183 232.96 110.274C232.96 112.365 234.656 114.06 236.747 114.06Z" fill="white"/>
<path d="M223.968 114.06C226.059 114.06 227.754 112.365 227.754 110.274C227.754 108.183 226.059 106.488 223.968 106.488C221.877 106.488 220.182 108.183 220.182 110.274C220.182 112.365 221.877 114.06 223.968 114.06Z" fill="white"/>
<path d="M210.954 114.06C213.045 114.06 214.74 112.365 214.74 110.274C214.74 108.183 213.045 106.488 210.954 106.488C208.863 106.488 207.167 108.183 207.167 110.274C207.167 112.365 208.863 114.06 210.954 114.06Z" fill="white"/>
</g>
<path d="M240 41C240 41 245.792 34.3477 249.267 31.1661C255.638 25.6707 263.168 15.8369 286.625 23.0676C288.363 23.6461 290.1 24.5138 292.128 25.0923C294.155 25.96 300.526 25.96 307.187 20.7538C317.612 12.3661 321.667 6.00298 336.147 6.00298C352.943 5.71375 355.55 26.5384 368.582 32.0338C376.98 35.5046 398.7 38.6862 403.333 40.4215L240 41Z" fill="#EAEBFB" style="mix-blend-mode:multiply"/>
<path d="M0 143C0 143 5.79199 136.348 9.26717 133.166C15.6383 127.671 23.1679 117.837 46.6253 125.068C48.3629 125.646 50.1005 126.514 52.1276 127.092C54.1548 127.96 60.526 127.96 67.1868 122.754C77.6123 114.366 81.6667 108.003 96.1466 108.003C112.943 107.714 115.55 128.538 128.582 134.034C136.98 137.505 158.7 140.686 163.333 142.422L0 143Z" fill="#EAEBFB" style="mix-blend-mode:multiply"/>
<path d="M699.359 91.3333L698.5 89L697.641 91.3333C696.953 93.3333 695.234 95 693 96C695.234 97 696.953 98.6667 697.641 100.667L698.5 103L699.359 100.667C700.047 98.6667 701.766 97 704 96C701.766 95 700.047 93.3333 699.359 91.3333Z" fill="white"/>
<path d="M170.111 173.667L169.222 171L168.333 173.667C167.444 176.037 165.667 177.815 163 179C165.667 180.185 167.444 182.259 168.333 184.333L169.222 187L170.111 184.333C171 181.963 172.778 180.185 175.444 179C172.778 177.815 170.704 175.741 170.111 173.667Z" fill="#E9B200"/>
</svg>
