<svg width="20" height="20" viewBox="0 0 20 20" fill="none" xmlns="http://www.w3.org/2000/svg">
<g clip-path="url(#clip0)">
<path d="M2.07031 11.7078C1.82707 11.7078 1.62969 11.9052 1.62969 12.1484C1.62969 12.3917 1.82707 12.5891 2.07031 12.5891C2.31355 12.5891 2.51094 12.3917 2.51094 12.1484C2.51094 11.9052 2.31355 11.7078 2.07031 11.7078Z" fill="#545F7D" stroke="#545F7D" stroke-width="0.1"/>
<path d="M14.3404 14.2429L17.954 12.8251L17.9543 12.825L17.9656 12.8207L17.9656 12.8207L17.9826 12.8678L14.3404 14.2429ZM14.3404 14.2429C14.3446 14.1962 14.3469 14.1491 14.3469 14.1016C14.3469 13.2124 13.6236 12.4891 12.7344 12.4891H10.2047C10.1462 12.4891 10.0884 12.474 10.0375 12.4453L10.0375 12.4452L7.97373 11.2845L14.3404 14.2429ZM12.8687 18.6789C12.0657 19.0443 11.2106 19.2297 10.3277 19.2297C9.53529 19.2297 8.7606 19.0789 8.02543 18.7815L8.02542 18.7815L4.30757 17.2766H4.07344V17.6172C4.07344 17.8605 3.87617 18.0578 3.63281 18.0578H0.390625C0.147269 18.0578 -0.05 17.8605 -0.05 17.6172V10.5859C-0.05 10.3426 0.147269 10.1453 0.390625 10.1453H3.63281C3.87617 10.1453 4.07344 10.3426 4.07344 10.5859V10.9266H6.6082C7.08599 10.9266 7.55811 11.0503 7.97369 11.2845L12.8687 18.6789ZM12.8687 18.6789C12.8687 18.6788 12.8688 18.6788 12.8688 18.6788L12.8687 18.6789ZM4.07344 16.3954V11.8078H6.6082C6.93474 11.8078 7.25738 11.8924 7.54139 12.0524L7.54143 12.0524L9.60523 13.2132C9.78769 13.316 9.99497 13.3703 10.2047 13.3703H12.7344C13.1375 13.3703 13.4656 13.6984 13.4656 14.1016C13.4656 14.3531 13.3345 14.5878 13.1209 14.7214C13.0893 14.7339 13.0605 14.7499 13.0342 14.768C12.9408 14.8104 12.8385 14.8328 12.7344 14.8328H8.76328C8.08949 14.8328 7.54141 15.3809 7.54141 16.0547C7.54141 16.298 7.73867 16.4953 7.98203 16.4953C8.22539 16.4953 8.42266 16.298 8.42266 16.0547C8.42266 15.8669 8.5755 15.7141 8.76328 15.7141H12.7344C13.0038 15.7141 13.2685 15.6459 13.5021 15.5184L18.2691 13.6481C18.2694 13.648 18.2696 13.6479 18.2699 13.6478C18.4783 13.5743 18.7007 13.6048 18.8819 13.732C19.0644 13.8601 19.1688 14.0609 19.1688 14.284C19.1688 14.5614 19.0023 14.8072 18.7444 14.9105C18.7359 14.9139 18.7274 14.9176 18.719 14.9216C18.719 14.9216 18.719 14.9216 18.719 14.9216L12.501 17.8779C12.5009 17.878 12.5008 17.878 12.5006 17.8781C11.8138 18.1902 11.0828 18.3484 10.3277 18.3484C9.64898 18.3484 8.98562 18.2193 8.35595 17.9646C8.35594 17.9646 8.35594 17.9646 8.35593 17.9646L4.55868 16.4275L4.55867 16.4275C4.50615 16.4063 4.45002 16.3954 4.39336 16.3954H4.07344ZM3.19219 17.1766H0.83125V11.0266H3.19219V17.1766Z" fill="#545F7D" stroke="#545F7D" stroke-width="0.1"/>
<path d="M15.4688 7.02031C14.1488 7.02031 13.075 8.0941 13.075 9.41406C13.075 10.734 14.1488 11.8078 15.4688 11.8078C16.7887 11.8078 17.8625 10.734 17.8625 9.41406C17.8625 8.0941 16.7887 7.02031 15.4688 7.02031ZM15.4688 10.9266C14.6348 10.9266 13.9563 10.248 13.9563 9.41406C13.9563 8.58011 14.6348 7.90156 15.4688 7.90156C16.3027 7.90156 16.9813 8.58011 16.9813 9.41406C16.9813 10.248 16.3027 10.9266 15.4688 10.9266Z" fill="#545F7D" stroke="#545F7D" stroke-width="0.1"/>
<path d="M13.9062 0.770312C12.5863 0.770312 11.5125 1.8441 11.5125 3.16406C11.5125 4.48402 12.5863 5.55781 13.9062 5.55781C15.2262 5.55781 16.3 4.48402 16.3 3.16406C16.3 1.8441 15.2262 0.770312 13.9062 0.770312ZM13.9062 4.67656C13.0723 4.67656 12.3938 3.99801 12.3938 3.16406C12.3938 2.33011 13.0723 1.65156 13.9062 1.65156C14.7402 1.65156 15.4188 2.33011 15.4188 3.16406C15.4188 3.99801 14.7402 4.67656 13.9062 4.67656Z" fill="#545F7D" stroke="#545F7D" stroke-width="0.1"/>
<path d="M9.21875 5.45781C7.89879 5.45781 6.825 6.5316 6.825 7.85156C6.825 9.17152 7.89879 10.2453 9.21875 10.2453C10.5387 10.2453 11.6125 9.17152 11.6125 7.85156C11.6125 6.5316 10.5387 5.45781 9.21875 5.45781ZM9.21875 9.36406C8.3848 9.36406 7.70625 8.68551 7.70625 7.85156C7.70625 7.01761 8.3848 6.33906 9.21875 6.33906C10.0527 6.33906 10.7313 7.01761 10.7313 7.85156C10.7313 8.68551 10.0527 9.36406 9.21875 9.36406Z" fill="#545F7D" stroke="#545F7D" stroke-width="0.1"/>
</g>
<defs>
<clipPath id="clip0">
<rect width="20" height="20" fill="white"/>
</clipPath>
</defs>
</svg>
