<svg width="70" height="70" viewBox="0 0 70 70" fill="none" xmlns="http://www.w3.org/2000/svg">
<circle cx="35" cy="35" r="35" fill="#E5F5F6"/>
<path d="M28.8878 23.0015C28.6235 23.0292 28.3788 23.1542 28.2015 23.3522C28.0241 23.5501 27.9266 23.807 27.9281 24.0728V26.5727H20.0714C20.0342 26.5707 19.997 26.5707 19.9598 26.5727C19.6954 26.6004 19.4508 26.7254 19.2734 26.9234C19.096 27.1214 18.9986 27.3782 19 27.644V32.6438C19.001 32.8765 19.0778 33.1026 19.2188 33.2879C19.3597 33.4731 19.5572 33.6074 19.7812 33.6705L20.7856 33.9606V46.9286C20.7857 47.2128 20.8985 47.4853 21.0995 47.6862C21.3004 47.8871 21.5729 48 21.857 48H48.284C48.5682 48 48.8407 47.8871 49.0416 47.6862C49.2425 47.4853 49.3554 47.2128 49.3554 46.9286V37.2863C49.3574 37.1444 49.3312 37.0034 49.2782 36.8717C49.2253 36.7399 49.1467 36.62 49.047 36.5189C48.9473 36.4178 48.8285 36.3375 48.6976 36.2827C48.5666 36.2279 48.426 36.1997 48.284 36.1997C48.142 36.1997 48.0015 36.2279 47.8705 36.2827C47.7395 36.3375 47.6207 36.4178 47.521 36.5189C47.4214 36.62 47.3428 36.7399 47.2898 36.8717C47.2369 37.0034 47.2107 37.1444 47.2127 37.2863V45.8573H22.9284V34.5633L27.995 36.0141C28.1333 36.0654 28.2806 36.0876 28.4279 36.0793C28.5751 36.0711 28.719 36.0325 28.8507 35.966C28.9823 35.8996 29.0988 35.8067 29.1929 35.6931C29.287 35.5796 29.3566 35.4478 29.3974 35.3061C29.4382 35.1644 29.4494 35.0158 29.4301 34.8696C29.4108 34.7234 29.3616 34.5828 29.2855 34.4565C29.2094 34.3302 29.108 34.2209 28.9877 34.1356C28.8675 34.0503 28.7309 33.9907 28.5865 33.9606L21.1427 31.8291V28.7154H48.9983V31.8291L38.6417 34.7865C38.6417 34.5023 38.5288 34.2299 38.3279 34.0289C38.127 33.828 37.8545 33.7151 37.5704 33.7151H32.5707C32.2865 33.7151 32.014 33.828 31.8131 34.0289C31.6122 34.2299 31.4993 34.5023 31.4993 34.7865V37.6435C31.4993 37.9276 31.6122 38.2001 31.8131 38.401C32.014 38.6019 32.2865 38.7148 32.5707 38.7148H37.5704C37.8379 38.716 38.0962 38.617 38.2945 38.4373C38.4928 38.2576 38.6166 38.0103 38.6417 37.7439C38.6433 37.7104 38.6433 37.6769 38.6417 37.6435V37.0185L50.3598 33.6705C50.5839 33.6074 50.7813 33.4731 50.9223 33.2879C51.0632 33.1026 51.14 32.8765 51.141 32.6438V27.644C51.141 27.3599 51.0281 27.0874 50.8272 26.8865C50.6263 26.6856 50.3538 26.5727 50.0696 26.5727H42.213V24.0728C42.2129 23.7887 42.1 23.5162 41.8991 23.3153C41.6982 23.1144 41.4257 23.0015 41.1416 23.0015H28.9994C28.9623 22.9995 28.925 22.9995 28.8878 23.0015ZM30.0708 25.1442H40.0702V26.5727H30.0708V25.1442ZM33.642 35.8578H36.499V36.5721H33.642V35.8578Z" fill="#39CDCC"/>
</svg>
