<svg width="263" height="35" viewBox="0 0 263 35" fill="none" xmlns="http://www.w3.org/2000/svg">
<path d="M3.61307 29.022C3.61307 27.0043 5.29574 25.3941 7.31143 25.4829L20.2157 26.0511C21.4266 26.1044 22.4124 27.0433 22.5245 28.2503C22.6454 29.5507 21.715 30.7134 20.4197 30.8807L7.60939 32.5353C5.49035 32.809 3.61307 31.1586 3.61307 29.022Z" fill="white"/>
<path d="M0 17.4946C0 15.4367 1.68136 13.7755 3.7391 13.8002L29.2519 14.107C30.6071 14.1233 31.7136 15.1954 31.7726 16.5495C31.8325 17.925 30.7912 19.1005 29.4185 19.2068L3.98015 21.1783C1.83356 21.3446 0 19.6476 0 17.4946Z" fill="white"/>
<path d="M3.61307 6.07701C3.61307 4.05536 5.30923 2.44756 7.328 2.55562L19.5835 3.21164C20.5481 3.26327 21.3884 3.88659 21.7176 4.79474C22.2427 6.24301 21.291 7.8049 19.7632 8.00223L7.59124 9.57439C5.48182 9.84685 3.61307 8.20395 3.61307 6.07701Z" fill="white"/>
<path d="M44.3242 0V34.169H50.239V0H44.3242Z" fill="white"/>
<path d="M79.3506 24.2458C80.2793 14.3226 75.2444 9.33659 67.1788 9.33659C59.3576 9.33659 54.3715 14.6159 54.3715 21.9483C54.3715 29.6718 59.3087 34.8045 67.6187 34.8045C71.2849 34.8045 75.44 33.5335 77.9819 30.8939L74.169 27.1299C72.8003 28.5475 69.9162 29.3785 67.7165 29.3785C63.5126 29.3785 60.9218 27.2277 60.5307 24.2458H79.3506ZM60.6285 19.3087C61.5084 16.1802 64.1481 14.6159 67.3743 14.6159C70.7961 14.6159 73.2402 16.1802 73.6313 19.3087H60.6285Z" fill="white"/>
<path d="M107.654 34.169V21.5084C107.654 13.9316 103.108 9.67877 97.4375 9.67877C94.4068 9.67877 91.9627 10.9008 89.5185 13.2961L89.1275 10.021H83.7993V34.169H89.7141V21.8506C89.7141 18.1844 92.2071 15.1047 95.8733 15.1047C99.6861 15.1047 101.69 17.8911 101.69 21.5573V34.169H107.654Z" fill="white"/>
<path d="M124.462 15.0559C128.226 15.0559 131.452 17.8911 131.452 22.095C131.452 26.4455 128.226 29.183 124.462 29.183C120.649 29.183 117.618 26.2989 117.618 22.095C117.618 17.7444 120.649 15.0559 124.462 15.0559ZM131.843 0V13.345C130.426 10.852 126.466 9.48324 123.924 9.48324C116.885 9.48324 111.655 13.7849 111.655 22.095C111.655 30.014 116.983 34.7067 124.071 34.7067C127.004 34.7067 129.986 33.7291 131.843 30.845L132.234 34.169H137.807V0H131.843Z" fill="white"/>
<path d="M162.061 12.5629C159.275 10.1187 156.439 9.38548 152.675 9.38548C148.276 9.38548 142.508 11.3408 142.508 16.9134C142.508 22.3883 147.934 24.0503 152.48 24.3925C155.902 24.588 157.27 25.2723 157.27 26.9344C157.27 28.6941 155.168 29.8673 152.92 29.8184C150.231 29.7696 146.321 28.352 144.61 26.4455L141.677 30.6983C145.196 34.3645 149.009 35 152.822 35C159.714 35 163.185 31.3338 163.185 27.081C163.185 20.6774 157.417 19.6508 152.871 19.3575C149.791 19.162 148.374 18.2821 148.374 16.7179C148.374 15.2025 149.938 14.3226 152.773 14.3226C155.071 14.3226 157.026 14.8603 158.737 16.4735L162.061 12.5629Z" fill="white"/>
<path d="M169.452 3.91062V10.1187H164.955V15.2514H169.452V25.6634C169.452 31.676 172.874 34.6578 178.105 34.4623C179.913 34.4134 181.331 34.1201 183.042 33.4358L181.38 28.352C180.5 28.7919 179.424 29.0852 178.496 29.0852C176.638 29.0852 175.367 27.9609 175.367 25.6634V15.2514H182.064V10.1187H175.416V3.27514L169.452 3.91062Z" fill="white"/>
<path d="M205.45 13.3939C204.082 10.9986 201.002 9.48324 197.776 9.48324C190.737 9.43436 185.213 13.7849 185.213 22.095C185.213 30.5517 190.492 34.9511 197.629 34.9022C200.318 34.8534 204.082 33.4846 205.45 30.6494L205.744 34.169H211.365V10.0698H205.646L205.45 13.3939ZM198.313 14.8115C207.699 14.8115 207.699 29.4274 198.313 29.4274C194.354 29.4274 191.177 26.6899 191.177 22.095C191.177 17.5 194.354 14.8115 198.313 14.8115Z" fill="white"/>
<path d="M233.61 27.1788C232.144 28.6453 230.237 29.183 228.331 29.183C224.616 29.183 221.487 26.7388 221.487 22.1439C221.487 17.9399 224.42 15.007 228.429 15.007C230.091 15.007 231.85 15.6425 233.268 16.9134L237.032 12.9539C234.392 10.3631 231.753 9.38548 228.331 9.38548C221.341 9.38548 215.524 13.5894 215.524 22.1439C215.524 30.6983 221.341 34.9022 228.331 34.9022C231.899 34.9022 234.832 33.8268 237.619 31.0894L233.61 27.1788Z" fill="white"/>
<path d="M240.09 0V34.169H246.054V23.2682L255.488 34.169H262.674V33.7291L251.48 21.4106L261.305 10.412V10.0698H254.168L246.054 19.7486V0H240.09Z" fill="white"/>
</svg>
