<svg width="188" height="25" viewBox="0 0 188 25" fill="none" xmlns="http://www.w3.org/2000/svg">
<path d="M2.58076 20.73C2.58076 19.2888 3.78267 18.1387 5.22245 18.2021L14.4398 18.6079C15.3047 18.646 16.0088 19.3167 16.0889 20.1788C16.1753 21.1076 15.5107 21.9381 14.5855 22.0576L5.43528 23.2395C3.92167 23.435 2.58076 22.2562 2.58076 20.73Z" fill="url(#paint0_linear)"/>
<path d="M0 12.4962C0 11.0263 1.20097 9.83963 2.67079 9.8573L20.8942 10.0764C21.8622 10.0881 22.6526 10.8539 22.6947 11.8211C22.7375 12.8036 21.9937 13.6432 21.0132 13.7192L2.84297 15.1273C1.30969 15.2462 0 14.034 0 12.4962Z" fill="url(#paint1_linear)"/>
<path d="M2.58076 4.34073C2.58076 2.89669 3.79231 1.74827 5.23428 1.82545L13.9882 2.29403C14.6772 2.33092 15.2774 2.77615 15.5126 3.42482C15.8877 4.4593 15.2078 5.57493 14.1165 5.71589L5.42231 6.83886C3.91558 7.03347 2.58076 5.85998 2.58076 4.34073Z" fill="url(#paint2_linear)"/>
<path d="M31.6602 0V24.4064H35.885V0H31.6602Z" fill="#213F7D"/>
<path d="M56.679 17.3184C57.3424 10.2304 53.746 6.669 47.9848 6.669C42.3983 6.669 38.8368 10.4399 38.8368 15.6774C38.8368 21.1941 42.3633 24.8603 48.2991 24.8603C50.9178 24.8603 53.8857 23.9525 55.7013 22.067L52.9779 19.3785C52.0002 20.3911 49.9402 20.9846 48.3689 20.9846C45.3661 20.9846 43.5156 19.4483 43.2362 17.3184H56.679ZM43.3061 13.7919C43.9346 11.5573 45.82 10.4399 48.1245 10.4399C50.5686 10.4399 52.3145 11.5573 52.5938 13.7919H43.3061Z" fill="#213F7D"/>
<path d="M76.8957 24.4064V15.3631C76.8957 9.95112 73.6485 6.91341 69.5982 6.91341C67.4334 6.91341 65.6876 7.78631 63.9418 9.49721L63.6625 7.15782H59.8566V24.4064H64.0815V15.6075C64.0815 12.9888 65.8622 10.7891 68.4809 10.7891C71.2044 10.7891 72.636 12.7793 72.636 15.398V24.4064H76.8957Z" fill="#213F7D"/>
<path d="M88.9014 10.7542C91.59 10.7542 93.8945 12.7793 93.8945 15.7821C93.8945 18.8897 91.59 20.845 88.9014 20.845C86.178 20.845 84.0132 18.7849 84.0132 15.7821C84.0132 12.6746 86.178 10.7542 88.9014 10.7542ZM94.1738 0V9.53212C93.1612 7.7514 90.333 6.77374 88.5174 6.77374C83.4894 6.77374 79.7534 9.84637 79.7534 15.7821C79.7534 21.4385 83.5593 24.7905 88.6221 24.7905C90.7171 24.7905 92.847 24.0922 94.1738 22.0321L94.4531 24.4064H98.4336V0H94.1738Z" fill="#213F7D"/>
<path d="M115.758 8.97346C113.768 7.22765 111.742 6.70391 109.054 6.70391C105.911 6.70391 101.791 8.10056 101.791 12.081C101.791 15.9916 105.667 17.1788 108.914 17.4232C111.358 17.5628 112.336 18.0517 112.336 19.2388C112.336 20.4958 110.835 21.3338 109.228 21.2989C107.308 21.264 104.515 20.2514 103.293 18.8897L101.198 21.9274C103.712 24.5461 106.435 25 109.159 25C114.082 25 116.561 22.3813 116.561 19.3436C116.561 14.7696 112.441 14.0363 109.193 13.8268C106.994 13.6872 105.981 13.0587 105.981 11.9413C105.981 10.8589 107.099 10.2304 109.124 10.2304C110.765 10.2304 112.161 10.6145 113.383 11.7668L115.758 8.97346Z" fill="#213F7D"/>
<path d="M121.037 2.7933V7.22765H117.825V10.8939H121.037V18.331C121.037 22.6257 123.482 24.7556 127.218 24.6159C128.51 24.581 129.522 24.3715 130.744 23.8827L129.557 20.2514C128.928 20.5656 128.16 20.7751 127.497 20.7751C126.17 20.7751 125.262 19.9721 125.262 18.331V10.8939H130.046V7.22765H125.297V2.33939L121.037 2.7933Z" fill="#213F7D"/>
<path d="M146.75 9.56704C145.773 7.85615 143.573 6.77374 141.268 6.77374C136.24 6.73883 132.295 9.84637 132.295 15.7821C132.295 21.8226 136.066 24.9651 141.164 24.9302C143.084 24.8953 145.773 23.9176 146.75 21.8925L146.96 24.4064H150.975V7.19274H146.89L146.75 9.56704ZM141.652 10.5796C148.356 10.5796 148.356 21.0196 141.652 21.0196C138.824 21.0196 136.555 19.0642 136.555 15.7821C136.555 12.5 138.824 10.5796 141.652 10.5796Z" fill="#213F7D"/>
<path d="M166.864 19.4134C165.817 20.4609 164.455 20.845 163.093 20.845C160.44 20.845 158.205 19.0992 158.205 15.817C158.205 12.8142 160.3 10.7193 163.163 10.7193C164.35 10.7193 165.607 11.1732 166.62 12.081L169.309 9.25279C167.423 7.40224 165.538 6.70391 163.093 6.70391C158.1 6.70391 153.945 9.7067 153.945 15.817C153.945 21.9274 158.1 24.9302 163.093 24.9302C165.642 24.9302 167.737 24.162 169.728 22.2067L166.864 19.4134Z" fill="#213F7D"/>
<path d="M171.493 0V24.4064H175.753V16.6201L182.492 24.4064H187.624V24.0922L179.628 15.2933L186.647 7.43715V7.19274H181.549L175.753 14.1061V0H171.493Z" fill="#213F7D"/>
<defs>
<linearGradient id="paint0_linear" x1="1.82172" y1="42.7345" x2="15.4087" y2="-2.5807" gradientUnits="userSpaceOnUse">
<stop offset="0.195399" stop-color="#213F7D"/>
<stop offset="1" stop-color="#3FEDDE"/>
</linearGradient>
<linearGradient id="paint1_linear" x1="1.82172" y1="42.7345" x2="15.4087" y2="-2.5807" gradientUnits="userSpaceOnUse">
<stop offset="0.195399" stop-color="#213F7D"/>
<stop offset="1" stop-color="#3FEDDE"/>
</linearGradient>
<linearGradient id="paint2_linear" x1="1.82172" y1="42.7345" x2="15.4087" y2="-2.5807" gradientUnits="userSpaceOnUse">
<stop offset="0.195399" stop-color="#213F7D"/>
<stop offset="1" stop-color="#3FEDDE"/>
</linearGradient>
</defs>
</svg>
