<svg width="30" height="30" viewBox="0 0 30 30" fill="none" xmlns="http://www.w3.org/2000/svg">
<circle opacity="0.5" cx="15" cy="15" r="15" fill="#213F7D"/>
<path d="M10.6018 19.988H10.7551H14.3739C14.5119 20.5706 15.0333 21 15.6467 21C16.26 21 16.7967 20.5706 16.9194 19.988H20.5382H20.6916C21.1516 19.988 21.4276 19.4973 21.2129 19.0986L20.3849 17.3505V13.2563C20.3849 10.9102 19.1428 8.94743 16.9654 8.47207L16.444 7.24534C16.4134 7.10734 16.2907 7 16.1527 7H15.2173C15.0793 7 14.9566 7.10734 14.926 7.24534L14.4046 8.45674C12.1965 8.90142 10.9084 10.8795 10.9084 13.2563V17.3658L10.0804 19.1139C9.85038 19.5126 10.1417 19.988 10.6018 19.988Z" fill="white"/>
</svg>
