<svg width="564" height="450" viewBox="0 0 564 450" fill="none" xmlns="http://www.w3.org/2000/svg">
<g opacity="0.4">
<path d="M42.1072 319.672C42.1072 382.164 87.9931 412.973 147.863 412.973C207.733 412.973 261.704 369.054 261.704 306.343C261.704 243.851 194.623 186.166 137.157 202.772C73.7903 221.126 42.1072 257.179 42.1072 319.672Z" fill="#39CDCC" style="mix-blend-mode:multiply"/>
</g>
<path opacity="0.3" d="M226.088 37.8012C217.566 37.8012 213.415 28.4055 209.263 19.2284C205.112 10.0512 201.178 1.31103 193.531 1.31103C185.883 1.31103 181.95 10.0512 177.799 19.2284C173.647 28.4055 169.495 37.8012 160.974 37.8012C152.452 37.8012 148.3 28.4055 144.149 19.2284C139.997 10.0512 136.064 1.31103 128.417 1.31103C120.769 1.31103 116.836 10.0512 112.684 19.2284C108.533 28.4055 104.381 37.8012 95.8595 37.8012C87.3378 37.8012 83.1862 28.4055 79.0347 19.2284C74.8831 10.0512 70.95 1.31103 63.3024 1.31103C62.8654 1.31103 62.6469 1.09252 62.6469 0.655511C62.6469 0.218502 62.8654 0 63.3024 0C71.824 0 75.9756 9.39569 80.1272 18.5729C84.2788 27.75 88.2118 36.4902 95.8595 36.4902C103.507 36.4902 107.44 27.75 111.592 18.5729C115.743 9.39569 119.895 0 128.417 0C136.938 0 141.09 9.39569 145.241 18.5729C149.393 27.75 153.326 36.4902 160.974 36.4902C168.621 36.4902 172.554 27.75 176.706 18.5729C180.858 9.39569 185.009 0 193.531 0C202.053 0 206.204 9.39569 210.356 18.5729C214.507 27.75 218.44 36.4902 226.088 36.4902C226.525 36.4902 226.743 36.7087 226.743 37.1457C226.743 37.5827 226.306 37.8012 226.088 37.8012Z" fill="#213F7D"/>
<g style="mix-blend-mode:multiply" opacity="0.4">
<path d="M418.59 175.896C328.348 155.794 234.828 155.794 144.586 175.896C139.342 176.988 134.098 173.929 132.787 168.685C123.391 129.136 113.777 89.8053 104.381 50.256C103.07 45.0119 107.222 39.7678 113.777 38.2383C224.34 13.5474 338.836 13.5474 449.399 38.2383C455.736 39.7678 460.106 45.0119 458.795 50.256C449.399 89.8053 439.785 129.136 430.389 168.685C429.078 173.929 423.834 176.988 418.59 175.896Z" fill="#39CDCC"/>
</g>
<g opacity="0.49" filter="url(#filter0_b)">
<path d="M141.31 161.475C133.225 125.203 125.141 89.1498 117.056 52.8781C116.401 50.0376 118.804 46.9785 122.3 46.323C227.401 23.8171 335.997 23.8171 441.098 46.323C444.594 46.9785 446.997 50.0376 446.342 52.8781C438.257 89.1498 430.173 125.203 422.088 161.475C421.432 164.315 418.592 166.063 415.533 165.626C327.257 146.616 236.141 146.616 147.865 165.626C144.806 166.063 141.966 164.315 141.31 161.475Z" fill="#39CDCC"/>
</g>
<path d="M311.086 55.7186C309.994 84.9981 308.683 114.278 307.59 143.339C306.935 143.339 306.061 143.339 305.405 143.339C306.498 114.059 307.59 84.7796 308.683 55.7186C309.338 55.5001 310.212 55.7186 311.086 55.7186Z" fill="#F25F46"/>
<path d="M152.016 116.681C154.42 129.355 156.823 141.809 159.227 154.482C158.572 154.701 157.697 154.701 157.042 154.919C154.638 142.246 152.016 129.792 149.613 117.118C150.487 117.118 151.142 116.9 152.016 116.681Z" fill="#E2EBF4"/>
<path d="M205.112 117.555C206.204 127.388 207.297 137.221 208.389 146.835C207.734 146.835 206.86 147.053 206.204 147.053C205.112 137.221 203.801 127.388 202.708 117.774C203.582 117.774 204.238 117.774 205.112 117.555Z" fill="#E2EBF4"/>
<path d="M255.588 81.5021C256.243 102.042 257.117 122.799 257.773 143.339C257.117 143.339 256.243 143.339 255.588 143.339C254.714 122.799 253.84 102.042 253.184 81.5021C254.058 81.5021 254.932 81.5021 255.588 81.5021Z" fill="#E2EBF4"/>
<path d="M365.277 76.9135C362.437 100.293 359.814 123.673 356.974 147.272C356.318 147.272 355.444 147.053 354.789 147.053C357.411 123.673 360.033 100.075 362.873 76.695C363.529 76.695 364.403 76.9135 365.277 76.9135Z" fill="#E2EBF4"/>
<path d="M415.314 108.16C412.255 123.673 409.196 139.406 406.137 154.919C405.482 154.701 404.608 154.701 403.952 154.482C407.011 138.75 410.07 123.236 412.911 107.504C413.785 107.723 414.44 107.941 415.314 108.16Z" fill="#E2EBF4"/>
<path d="M410.507 132.632C410.507 132.851 410.507 133.069 410.288 133.288C410.507 133.069 410.507 132.851 410.507 132.632ZM145.898 79.0985C144.587 79.0985 143.276 79.317 141.747 79.5355C141.965 80.1911 141.965 81.0651 142.184 81.7206C143.495 81.5021 144.587 81.2836 145.68 81.2836C156.824 81.2836 164.69 91.7718 172.774 102.915C181.078 114.496 189.381 126.732 201.617 126.732C202.272 126.732 203.146 126.732 203.802 126.514C203.802 125.858 203.583 124.984 203.583 124.329C202.928 124.329 202.272 124.547 201.617 124.547C190.692 124.547 183.263 113.404 174.959 101.823C166.875 90.6793 158.353 79.0985 145.898 79.0985ZM362.873 70.5769C349.544 70.5769 341.46 83.2501 334.249 95.4864C326.601 108.16 320.046 120.177 308.465 120.396C308.465 121.051 308.465 121.925 308.465 122.581C321.357 122.362 328.786 109.252 336.434 96.5789C343.863 84.3426 351.292 72.7619 363.091 72.7619C363.747 72.7619 364.621 72.7619 365.277 72.9804C378.387 74.5099 383.194 88.2757 387.782 102.697C392.152 116.463 396.304 130.447 407.885 134.162C408.103 133.506 408.103 132.632 408.322 131.977C398.052 128.48 394.338 115.589 390.186 102.041C385.597 87.6202 380.353 72.5434 365.495 70.7954C364.402 70.5769 363.747 70.5769 362.873 70.5769ZM254.058 66.4253C253.839 66.4253 253.402 66.4253 253.184 66.4253C238.326 67.0808 231.77 81.7206 226.308 95.7049C221.064 108.815 216.257 121.27 205.769 124.11C205.769 124.766 205.987 125.64 205.987 126.295C218.005 123.455 223.03 109.689 228.493 96.3604C234.174 82.3761 240.074 69.0473 253.184 68.3918C253.402 68.3918 253.621 68.3918 253.839 68.3918C266.513 68.3918 273.286 81.0651 280.06 94.1753C286.615 107.504 292.952 121.051 305.843 122.362C305.843 121.707 305.843 120.833 305.843 120.177C294.481 118.866 288.8 106.63 282.245 93.3013C275.908 80.1911 268.479 66.4253 254.058 66.4253Z" fill="#E7EAFE"/>
<path d="M306.061 120.396C306.061 121.051 306.061 121.925 306.061 122.581C306.498 122.581 306.935 122.581 307.153 122.581C307.372 122.581 307.59 122.581 308.027 122.581C308.246 122.581 308.246 122.581 308.464 122.581C308.464 121.925 308.464 121.051 308.464 120.396C308.246 120.396 308.246 120.396 308.027 120.396C307.809 120.396 307.59 120.396 307.372 120.396C306.935 120.396 306.498 120.396 306.061 120.396Z" fill="#DD7A7D"/>
<path d="M205.768 124.11C205.113 124.329 204.239 124.329 203.583 124.547C203.583 125.203 203.802 126.077 203.802 126.732C204.676 126.732 205.331 126.514 205.987 126.295C205.987 125.64 205.987 124.766 205.768 124.11Z" fill="#D2DCF7"/>
<path d="M408.322 131.977C408.103 132.632 408.104 133.506 407.885 134.162C408.541 134.38 409.415 134.599 410.07 134.817C410.07 134.38 410.289 133.725 410.289 133.288C410.289 133.069 410.289 132.851 410.507 132.632C409.852 132.414 408.977 132.195 408.322 131.977Z" fill="#D2DCF7"/>
<path d="M141.257 58.0957C143.034 57.7545 144.217 56.1328 143.899 54.4736C143.58 52.8143 141.881 51.7459 140.103 52.0871C138.326 52.4283 137.143 54.05 137.461 55.7092C137.78 57.3684 139.479 58.4369 141.257 58.0957Z" fill="#FFC550"/>
<path d="M153.448 55.9258C155.232 55.6141 156.441 54.0122 156.15 52.3479C155.859 50.6836 154.178 49.5871 152.395 49.8988C150.612 50.2105 149.402 51.8124 149.693 53.4767C149.984 55.141 151.665 56.2375 153.448 55.9258Z" fill="#FFC550"/>
<path d="M165.564 53.6974C167.352 53.4148 168.588 51.833 168.324 50.1643C168.06 48.4956 166.397 47.3719 164.609 47.6545C162.821 47.9371 161.586 49.5189 161.849 51.1876C162.113 52.8563 163.776 53.9799 165.564 53.6974Z" fill="#FFC550"/>
<path d="M141.743 435.042L143.054 416.906L151.576 417.78L148.298 436.353L141.743 435.042Z" fill="#0CA8E5"/>
<path d="M148.955 431.983C149.392 431.983 150.047 432.201 150.484 432.638C153.325 435.042 157.039 437.664 159.443 438.756C163.813 440.504 166.435 443.126 159.443 443.126C152.669 443.126 150.703 442.908 148.518 442.908C145.458 442.908 146.769 443.126 139.34 443.126C135.626 443.126 137.374 436.134 139.34 432.857C139.996 431.764 140.214 430.89 141.307 431.109L148.955 431.983Z" fill="#D84835"/>
<path d="M163.815 435.042L167.529 417.343L176.051 418.217L170.37 436.353L163.815 435.042Z" fill="#0CA8E5"/>
<path d="M171.462 431.983C171.899 431.983 172.554 432.201 172.991 432.638C175.832 435.042 184.572 439.412 189.16 440.067C193.968 440.723 194.186 443.126 187.412 443.126C180.639 443.126 175.613 442.471 172.554 442.689C169.495 442.689 168.403 443.126 160.973 443.126C155.292 443.126 159.007 435.916 160.973 432.42C161.629 431.327 162.721 430.89 164.033 431.109L171.462 431.983Z" fill="#F25F46"/>
<path d="M252.088 112.53C249.903 114.278 247.5 115.589 245.533 116.681C244.222 116.9 242.693 117.555 241.6 118.211C240.07 119.303 232.86 124.329 230.893 130.884C230.019 132.85 228.927 135.036 227.834 137.002C227.616 137.439 227.397 137.876 227.179 138.313C226.96 138.75 226.742 139.187 226.523 139.406C225.431 141.372 224.557 143.339 223.464 145.087C219.531 151.86 216.254 157.104 214.506 158.197C208.606 161.256 190.907 159.071 179.982 156.886C176.704 156.23 173.427 158.197 172.771 161.475C172.116 164.752 174.082 168.03 177.36 168.685C180.637 169.341 192.655 171.963 203.799 171.963C209.917 171.963 215.598 171.307 219.75 169.122C224.12 166.937 228.271 157.978 231.33 149.894C231.986 148.146 232.641 146.398 233.297 144.65C233.734 143.339 234.171 142.246 234.608 141.154V140.935C235.263 138.969 235.7 137.439 236.137 136.347C236.793 134.161 237.448 133.287 238.104 131.758C238.759 130.228 245.315 130.228 247.937 128.262C250.777 126.514 250.34 121.707 249.248 118.648C249.248 118.429 249.029 118.211 249.029 117.992C249.466 117.774 250.122 117.337 250.559 116.9C254.71 114.715 257.769 108.16 252.088 112.53Z" fill="#045778"/>
<path d="M182.603 125.64C182.603 113.185 173.207 103.134 160.753 103.134C148.298 103.134 138.028 113.404 138.028 125.858C138.028 134.599 142.617 144.213 149.827 147.927C149.609 153.608 150.046 159.727 153.542 165.189C157.257 171.089 157.912 172.181 157.912 172.4C159.223 174.585 161.627 175.896 164.03 175.896C165.341 175.896 166.434 175.677 167.745 174.803C171.022 172.837 172.333 168.467 170.148 164.971C170.148 164.971 169.493 164.097 165.56 157.541C164.467 156.012 163.812 154.264 164.03 150.331C178.67 152.953 182.603 136.784 182.603 125.64Z" fill="#045778"/>
<path d="M143.711 290.611C143.711 290.611 137.593 274.878 141.526 253.246H192.437C192.437 253.246 193.748 268.542 192.656 285.148L143.711 290.611Z" fill="#293549"/>
<path d="M152.669 272.475C146.988 272.475 140.433 272.475 142.399 284.711C142.399 285.148 144.803 334.093 143.055 354.851C141.525 374.298 140.214 428.05 139.996 428.705H151.358C151.358 428.05 161.846 375.827 163.376 356.38C165.124 335.185 166.435 286.896 166.435 284.929C166.435 279.248 158.35 272.475 152.669 272.475Z" fill="#293549"/>
<path d="M192.655 282.963C192.218 277.282 186.756 274.441 181.075 274.66C175.393 275.097 164.25 279.467 164.687 285.148C164.687 285.585 174.738 327.975 174.956 347.203C175.175 364.246 173.864 378.449 162.502 428.705L173.645 429.361C176.049 422.806 195.714 370.583 195.277 346.548C195.059 327.101 192.874 284.711 192.655 282.963Z" fill="#293549"/>
<path d="M145.458 163.004C145.458 163.004 137.155 202.553 135.626 209.764C134.97 212.604 133.004 214.571 130.382 215.227C129.945 215.445 129.289 215.445 128.634 215.445C126.23 215.445 123.826 211.73 116.616 201.024C116.397 200.587 116.179 200.368 115.96 199.931C115.086 198.62 114.212 197.309 113.338 195.998C113.12 195.561 112.901 195.343 112.464 194.906C110.716 192.502 108.968 189.662 106.783 186.602C104.598 187.258 98.48 190.754 96.0765 190.754C92.7989 190.754 88.6473 190.536 89.9584 187.258C91.2694 183.98 94.547 181.795 97.8245 180.921C99.5725 180.484 102.632 179.61 103.724 178.955C103.724 178.955 103.943 178.955 103.943 178.736C104.161 178.736 104.38 178.518 104.598 178.518C104.817 178.518 105.035 178.299 105.035 178.299C105.254 178.299 105.472 178.299 105.691 178.081C105.909 178.081 106.128 178.081 106.346 178.081C106.565 178.081 106.783 178.081 106.783 178.081C107.002 178.081 107.22 178.081 107.439 178.081C107.657 178.081 107.876 178.081 107.876 178.081C108.094 178.081 108.313 178.081 108.531 178.299C108.75 178.299 108.968 178.518 108.968 178.518C109.187 178.518 109.405 178.736 109.405 178.736C109.624 178.736 109.842 178.955 109.842 178.955C110.061 179.173 110.061 179.173 110.279 179.392C110.498 179.392 110.498 179.61 110.716 179.829C110.935 180.047 110.935 180.047 111.153 180.266L111.372 180.484C113.775 183.762 116.179 187.039 118.801 190.317C119.019 190.754 119.456 190.973 119.675 191.41C120.767 192.721 121.86 194.032 122.734 195.124C122.952 195.343 123.171 195.78 123.608 195.998C124.264 196.872 124.919 197.746 125.575 198.402C126.012 196.435 126.449 194.469 126.886 192.284C126.886 192.065 127.104 191.628 127.104 191.41C129.945 177.644 133.659 160.164 133.659 160.164L145.458 163.004Z" fill="#045778"/>
<path d="M123.389 196.435L116.397 201.242C116.179 200.805 115.96 200.587 115.742 200.15C114.868 198.839 113.994 197.528 113.12 196.217C112.901 195.78 112.682 195.561 112.245 195.124L118.801 190.754C119.019 191.191 119.456 191.41 119.675 191.847C120.767 193.158 121.86 194.469 122.734 195.561C122.952 195.78 123.171 195.998 123.389 196.435Z" fill="#0583B4"/>
<path d="M224.995 140.28C217.784 154.264 214.507 157.104 213.851 157.541C208.389 160.164 195.497 159.071 185.009 156.886C182.387 156.23 180.42 155.575 179.546 155.575H137.593C135.19 155.575 133.223 157.323 132.786 159.508C132.786 159.508 127.979 182.014 125.139 196.435C124.483 195.561 123.609 194.687 122.735 193.595L111.373 202.553C119.895 213.042 124.265 216.538 128.635 216.538C129.29 216.538 129.946 216.538 130.601 216.319C131.475 216.101 132.131 215.882 132.786 215.445C134.753 214.353 136.064 212.386 136.501 210.201C136.938 208.671 137.375 205.612 138.249 201.898C140.653 221.563 144.149 225.496 141.527 253.465H192.438C192.438 253.465 190.471 201.679 186.975 173.711C192.001 174.585 199.212 174.803 205.548 174.148C211.666 173.492 216.255 172.4 220.407 170.215C222.373 169.122 224.995 168.03 235.483 147.927L224.995 140.28Z" fill="#457BF4"/>
<path d="M122.514 193.595L111.371 202.553C110.715 201.898 110.278 201.024 109.622 200.368L120.766 191.41C121.422 192.065 121.859 192.939 122.514 193.595Z" fill="#B6D0FF"/>
<path d="M234.826 140.935V141.154C234.389 142.246 233.952 143.339 233.515 144.65L226.523 139.624C226.741 139.187 226.96 138.75 227.178 138.532C227.397 138.095 227.615 137.658 227.834 137.221L234.826 140.935Z" fill="#0583B4"/>
<path d="M236.793 145.524C236.356 146.398 235.919 147.053 235.701 147.709L225.213 140.061C225.65 139.406 225.868 138.532 226.305 137.876L236.793 145.524Z" fill="#B6D0FF"/>
<path d="M138.249 201.898C137.375 205.612 136.719 208.671 136.501 210.201C136.064 212.604 134.752 214.352 132.786 215.445L135.408 179.829C136.501 186.384 137.375 194.032 138.249 201.898Z" fill="#3972D8"/>
<path d="M183.478 99.4194C183.478 99.4194 183.041 102.915 175.175 99.2009C160.098 92.4273 144.803 95.9233 140.651 99.2009C136.5 102.26 136.063 105.538 137.155 108.16C133.878 111.219 131.693 115.152 131.693 118.211C131.693 131.103 139.778 144.213 148.736 144.213C162.939 144.213 169.057 126.951 168.402 117.118C168.402 116.244 168.183 115.37 168.183 114.496C168.62 114.496 169.057 114.715 169.494 114.715C185.882 117.992 183.478 99.4194 183.478 99.4194Z" fill="#F78834"/>
<path opacity="0.79" d="M160.316 126.514C160.316 128.917 161.409 131.102 163.157 132.413C165.124 134.162 168.183 132.632 168.183 130.01V123.018C168.183 120.396 165.124 118.866 163.157 120.614C161.409 122.144 160.316 124.329 160.316 126.514Z" fill="#086185"/>
<path d="M171.678 427.831L170.586 427.394C170.804 426.739 186.537 376.264 188.285 368.398C189.596 362.717 191.781 352.229 191.344 343.925C191.125 336.933 187.192 281.215 187.192 280.778C187.848 274.004 188.285 252.154 188.285 251.935H189.377C189.377 252.154 188.94 274.004 188.285 280.778C188.285 281.215 192.218 336.933 192.436 343.925C192.655 352.229 190.688 362.935 189.377 368.616C187.411 376.701 171.897 427.176 171.678 427.831Z" fill="#687C99"/>
<path d="M156.821 257.835H139.778V258.927H156.821V257.835Z" fill="#687C99"/>
<path d="M328.786 264.609H389.53C391.497 264.609 392.589 263.079 392.152 261.112L382.101 225.059C381.446 223.093 379.479 221.563 377.513 221.563H316.769C314.802 221.563 313.709 223.093 314.146 225.059L324.198 261.112C324.635 263.079 326.82 264.609 328.786 264.609Z" fill="#CC5605"/>
<path d="M330.097 264.609H390.841C392.807 264.609 393.9 263.079 393.463 261.112L383.412 225.059C382.756 223.093 380.79 221.563 378.823 221.563H318.079C316.112 221.563 315.02 223.093 315.457 225.059L325.508 261.112C325.945 263.079 328.13 264.609 330.097 264.609Z" fill="#F78834"/>
<path d="M329.879 255.868L323.324 232.27C322.668 229.648 324.416 227.244 327.257 227.244H375.109C376.857 227.244 378.387 228.337 379.042 230.085L385.597 253.683C386.253 256.305 384.505 258.709 381.664 258.709H333.812C331.845 258.927 330.316 257.616 329.879 255.868Z" fill="#F7F7F7"/>
<path d="M326.165 265.264C326.383 265.92 327.039 266.357 327.913 266.357H391.935C392.809 266.357 393.464 265.92 393.683 265.264C393.901 265.046 393.464 264.609 393.246 264.609H326.602C326.165 264.609 325.946 264.827 326.165 265.264Z" fill="#CC5605"/>
<path d="M342.77 265.264C342.989 265.92 343.644 266.357 344.518 266.357H408.54C409.414 266.357 410.07 265.92 410.288 265.264C410.507 265.046 410.07 264.609 409.851 264.609H343.207C342.77 264.609 342.552 264.827 342.77 265.264Z" fill="#FCD592"/>
<path d="M370.52 264.609V264.827C370.52 265.264 370.738 265.483 371.176 265.483H382.101C382.538 265.483 382.756 265.264 382.756 264.827V264.609H370.52Z" fill="#FFF3E1"/>
<path d="M427.114 272.256C426.24 266.794 421.214 262.86 415.533 263.735C409.633 264.609 356.974 273.349 349.108 307.435C344.3 328.193 358.503 364.465 369.647 393.307L379.261 390.467C371.176 365.776 366.369 323.386 368.991 312.024C373.143 294.544 407.011 285.585 418.592 283.837C424.054 282.963 427.988 277.937 427.114 272.256Z" fill="#F4B038"/>
<path d="M431.265 120.614C431.046 120.614 431.047 120.396 430.828 120.396C428.424 110.345 419.466 100.293 408.759 100.293C398.271 100.293 389.312 110.126 386.69 119.959C386.035 119.959 385.379 120.177 384.724 120.614C382.976 122.144 381.883 124.11 381.883 126.514C381.883 128.917 382.976 131.102 384.724 132.414C385.379 133.069 386.253 133.288 387.127 133.069C389.094 139.187 395.649 148.801 405.263 149.457C405.263 153.171 404.608 155.575 403.515 157.323C399.363 163.878 398.926 164.752 398.926 164.752C396.96 168.248 398.052 172.618 401.33 174.585C402.422 175.24 403.733 175.677 405.045 175.677C407.448 175.677 409.852 174.366 411.163 172.181C411.163 171.963 412.037 170.87 415.533 164.971C419.029 159.508 419.684 152.734 419.247 147.272C424.273 144.65 427.987 138.532 429.736 133.069C430.173 132.851 430.391 132.851 430.828 132.632C432.576 131.102 433.669 129.136 433.669 126.732C434.106 124.329 433.013 122.144 431.265 120.614Z" fill="#045778"/>
<path d="M425.803 286.459C425.803 286.459 431.921 275.097 427.988 253.246H377.077C377.077 253.246 376.421 269.853 377.514 286.459H425.803Z" fill="#FFC550"/>
<path d="M387.782 266.575C378.605 266.575 370.52 266.575 363.31 266.356C325.727 266.138 314.365 265.919 309.121 275.534C307.373 278.811 306.062 284.492 310.65 291.703C322.449 310.276 363.528 339.118 367.898 342.833L375.546 333.437C365.713 325.571 344.518 301.099 332.501 286.896C339.93 286.459 351.292 286.677 363.31 286.677C370.52 286.677 378.823 286.896 388.001 286.896C393.682 286.896 398.27 282.307 398.27 276.626C398.27 270.945 393.463 266.575 387.782 266.575Z" fill="#FFC550"/>
<path d="M463.603 205.394C463.603 200.805 458.796 191.191 452.459 181.358C447.433 173.492 441.534 165.189 437.164 159.071C435.197 156.449 431.483 155.793 428.642 157.76C426.02 159.726 425.365 163.441 427.331 166.282C432.575 173.492 438.256 181.577 442.626 188.569C447.215 195.78 450.711 201.898 451.367 204.52C449.181 208.89 435.634 222.437 424.053 232.925C423.835 233.144 423.616 233.362 423.616 233.362L423.398 233.581C423.179 233.799 422.961 234.018 422.961 234.236C422.961 234.236 422.961 234.455 422.742 234.455C422.524 234.673 422.524 235.11 422.305 235.329V235.547C422.305 235.766 422.087 236.203 422.087 236.421V236.64C422.087 236.858 422.087 237.077 422.087 237.514C422.087 237.732 422.087 237.732 422.087 237.951C422.087 238.169 422.087 238.388 422.305 238.606C422.305 238.825 422.305 238.825 422.305 239.043C422.305 239.262 422.524 239.48 422.524 239.699C422.524 239.917 422.742 239.917 422.742 240.136C422.961 240.354 422.961 240.573 423.179 240.792L423.398 241.01C424.49 242.103 428.424 246.473 433.449 248.221C434.105 248.439 434.76 248.658 435.416 248.658C437.819 248.658 439.13 244.943 440.004 242.321C441.097 239.262 436.727 236.203 433.449 235.11H433.231C450.711 222.437 463.603 212.386 463.603 205.394Z" fill="#045778"/>
<path d="M452.458 181.358L445.903 186.165L442.844 188.569C438.474 181.577 433.012 173.492 427.549 166.282C425.582 163.66 426.238 159.726 428.86 157.76C431.482 155.793 435.415 156.449 437.382 159.071C441.752 165.189 447.433 173.492 452.458 181.358Z" fill="#ED8C62"/>
<path d="M452.896 179.173L445.685 183.762L439.567 187.695L438.475 185.947L435.416 180.921C433.231 177.425 431.264 174.148 429.735 171.963C428.205 169.778 427.331 168.248 427.331 168.248C426.675 167.374 426.457 166.282 426.238 165.189C425.801 162.13 426.894 159.071 429.735 157.323C430.609 156.667 431.701 156.449 432.794 156.23C433.449 156.23 433.886 156.012 434.542 156.23C436.945 156.449 439.349 157.541 440.66 159.727C440.878 159.945 444.374 165.626 448.963 172.837L452.022 177.862L452.896 179.173Z" fill="#F25F46"/>
<path d="M445.467 183.544L439.349 187.477L438.257 185.729L435.198 180.703C433.013 177.207 431.046 173.929 429.517 171.744C427.987 169.559 427.113 168.03 427.113 168.03C426.458 167.156 426.239 166.063 426.021 164.971C425.584 161.912 426.676 158.853 429.517 157.105C430.391 156.449 431.483 156.231 432.576 156.012C433.231 156.012 433.668 155.794 434.324 156.012C435.635 157.105 436.509 158.634 437.164 160.382C437.383 160.819 440.66 169.559 444.593 180.922L445.467 183.544Z" fill="#E24530"/>
<path d="M436.946 161.693C433.45 182.014 426.458 232.925 427.987 253.465H377.076C377.076 253.465 377.513 239.699 378.605 222.656C379.916 199.931 382.101 171.089 384.723 160.163C384.723 159.945 384.723 159.945 384.723 159.726C385.379 157.541 387.345 156.012 389.53 156.012H431.702C435.198 155.793 437.601 158.415 436.946 161.693Z" fill="#F25F46"/>
<path d="M420.996 106.193C416.189 112.311 387.784 116.244 387.784 102.26C387.784 99.2009 389.75 97.8899 389.75 97.8899C389.75 97.8899 389.969 100.075 391.061 100.512C391.061 100.512 395.868 97.6714 400.894 96.5789C400.894 96.5789 400.02 98.7639 403.516 98.3269C413.786 97.0159 429.081 95.9233 420.996 106.193Z" fill="#5252FF"/>
<path d="M397.833 170.215C397.833 170.215 397.615 172.181 397.178 175.24C396.741 178.299 396.085 182.669 395.43 187.258L394.556 194.032L378.823 222.656C380.134 199.931 382.32 171.089 384.942 160.164C385.597 159.727 386.253 159.29 386.908 159.071C388.219 158.634 389.53 158.634 391.06 159.071C393.9 159.945 396.304 162.567 397.178 165.626C397.833 166.937 398.052 168.467 397.833 170.215Z" fill="#E24530"/>
<path d="M401.111 102.041C395.867 103.352 391.497 112.53 391.06 117.774C390.186 127.606 397.615 143.339 413.129 143.339C431.483 143.339 433.231 123.673 432.357 118.648C431.483 113.622 428.424 102.697 420.558 101.604C415.751 101.167 406.792 100.512 401.111 102.041Z" fill="#5252FF"/>
<path d="M393.245 158.197C392.589 157.978 392.152 157.76 391.497 157.541C390.186 157.323 388.656 157.323 387.345 157.76C386.034 158.197 384.942 158.852 383.849 159.945C383.631 160.382 383.412 160.819 383.412 161.474C383.194 162.349 380.572 173.929 377.95 186.821C375.109 200.15 372.05 214.79 371.176 220.689C369.428 233.144 349.981 242.977 342.77 245.817C342.552 245.817 342.552 245.817 342.552 246.036C342.333 246.036 342.115 246.254 341.896 246.473C341.678 246.691 341.459 246.691 341.241 246.91C341.241 246.91 341.022 247.128 340.804 247.128C339.274 248.658 333.156 254.776 333.812 262.205C334.03 265.264 334.249 266.138 337.089 267.012C338.619 267.449 340.148 267.449 341.678 267.449C344.955 267.449 346.922 266.575 346.485 263.079C346.485 262.205 344.737 254.339 346.266 252.809C363.528 245.599 380.135 242.321 383.194 222.437C384.068 216.975 386.69 203.864 389.312 191.41C392.152 177.425 394.993 164.534 395.211 164.097C395.648 161.911 394.774 159.726 393.245 158.197Z" fill="#045778"/>
<path d="M395.212 164.097C395.212 164.315 392.371 177.425 389.312 191.41L377.95 187.04C380.572 174.148 383.194 162.567 383.413 161.693C383.413 161.256 383.631 160.601 383.85 160.164C384.724 159.071 386.035 158.416 387.346 157.978C388.657 157.541 389.968 157.541 391.497 157.76C392.153 157.978 392.808 158.197 393.245 158.415C394.775 159.727 395.649 161.912 395.212 164.097Z" fill="#ED8C62"/>
<path d="M377.294 184.854L392.807 187.914L393.244 185.947L394.337 180.047C395.211 175.896 395.866 172.181 396.522 169.559C397.177 166.937 397.396 165.189 397.396 165.189C397.614 163.878 397.614 162.349 397.177 161.038C396.303 158.415 394.118 156.23 391.278 155.793C389.967 155.575 388.437 155.575 387.126 156.012C384.504 156.886 382.319 159.071 381.882 161.912C381.882 162.13 380.353 168.685 378.605 177.207L377.512 183.106L377.294 184.854Z" fill="#F25F46"/>
<path d="M429.515 258.927H412.472V260.02H429.515V258.927Z" fill="#EFA21B"/>
<path d="M366.805 338.9C348.67 325.571 326.819 304.595 317.423 291.266C314.146 286.677 313.49 282.963 315.02 279.685C317.424 274.878 325.29 272.475 336.87 272.475C340.803 272.475 347.577 272.475 354.569 272.475C361.998 272.475 369.865 272.475 374.672 272.475C383.849 272.475 383.849 268.105 383.849 266.357V252.809H384.941V266.575C384.941 271.382 381.445 273.786 374.453 273.786C369.646 273.786 361.78 273.786 354.351 273.786C347.359 273.786 340.585 273.786 336.652 273.786C325.508 273.786 317.861 276.189 315.675 280.559C314.364 283.4 315.02 286.896 318.079 291.048C327.475 304.158 348.888 324.916 367.024 338.463L366.805 338.9Z" fill="#EFA21B"/>
<path d="M365.713 338.244C365.276 338.463 364.839 338.9 364.621 339.555C363.091 343.051 357.192 350.699 353.258 353.321C349.325 356.162 349.981 358.347 356.099 355.288C362.217 352.229 366.369 349.607 369.209 348.296C372.05 346.985 373.142 346.985 379.916 343.707C384.941 341.303 378.386 336.278 375.109 334.093C374.016 333.437 372.705 333.437 371.613 334.093L365.713 338.244Z" fill="#293549"/>
<path d="M370.084 390.904C369.865 391.341 369.647 391.778 369.647 392.433C369.428 396.148 367.462 404.67 363.092 407.51C358.94 410.132 360.251 412.099 366.588 409.477C372.05 407.073 375.109 400.955 377.295 398.77C379.48 396.585 380.572 395.93 385.379 390.467C389.312 386.315 381.228 384.13 377.513 383.475C376.42 383.256 375.109 383.693 374.454 384.786L370.084 390.904Z" fill="#293549"/>
<path d="M429.298 285.803H375.328V442.908H429.298V285.803Z" fill="#457BF4"/>
<path opacity="0.5" d="M504.245 405.762H450.275V442.908H504.245V405.762Z" fill="#39CDCC"/>
<path opacity="0.5" d="M354.57 378.012H300.599V442.908H354.57V378.012Z" fill="#39CDCC"/>
<path opacity="0.5" d="M280.059 338.026H226.088V442.908H280.059V338.026Z" fill="#39CDCC"/>
<path opacity="0.5" d="M113.559 449.9H514.951C516.918 449.9 518.447 448.371 518.447 446.404C518.447 444.438 516.918 442.908 514.951 442.908H113.559C111.593 442.908 110.063 444.438 110.063 446.404C110.063 448.371 111.593 449.9 113.559 449.9Z" fill="#E2E2E2"/>
<path d="M436.485 65.965L431.849 70.5994L440.346 79.0984L444.982 74.4639L436.485 65.965Z" fill="#F78879"/>
<path d="M470.813 104.882C468.41 107.286 464.695 107.067 462.292 104.663L437.601 77.7875L443.719 71.6694L470.595 96.3603C472.998 98.5454 473.217 102.478 470.813 104.882Z" fill="#EFA46C"/>
<path opacity="0.4" d="M442.845 47.4154C442.845 63.8032 429.516 76.9135 413.347 76.9135C406.355 76.9135 399.8 74.5099 394.774 70.3583C393.026 68.8288 391.278 67.2993 389.967 65.5513C389.093 64.4587 388.219 63.3662 387.563 62.0552C385.378 58.3406 384.067 54.189 383.849 49.819C383.849 49.1634 383.849 48.2894 383.849 47.4154C383.849 31.0276 397.178 17.9174 413.347 17.9174C414.221 17.9174 414.876 17.9174 415.75 17.9174C420.121 18.3544 424.272 19.6654 427.987 21.6319C429.298 22.2874 430.39 23.1615 431.483 24.0355C433.231 25.3465 434.979 27.0945 436.29 28.8426C440.441 33.8682 442.845 40.4233 442.845 47.4154Z" fill="#BFE2EF"/>
<path opacity="0.3" d="M427.987 21.6319L387.563 62.0552C385.378 58.3406 384.067 54.189 383.849 49.819L415.75 17.9174C420.121 18.1359 424.272 19.4469 427.987 21.6319Z" fill="white"/>
<path opacity="0.3" d="M436.289 28.8425L394.773 70.3583C393.025 68.8288 391.277 67.2993 389.966 65.5512L431.482 24.0355C433.23 25.3465 434.978 27.0945 436.289 28.8425Z" fill="white"/>
<path d="M413.347 80.1911C404.607 80.1911 396.303 76.695 390.185 70.5769C384.067 64.4588 380.571 56.1556 380.571 47.4154C380.571 38.6753 384.067 30.3721 390.185 24.254C396.303 18.1359 404.607 14.6398 413.347 14.6398C422.087 14.6398 430.39 18.1359 436.508 24.254C442.626 30.3721 446.122 38.6753 446.122 47.4154C446.122 56.1556 442.626 64.4588 436.508 70.5769C430.39 76.695 422.087 80.1911 413.347 80.1911ZM413.347 20.9765C406.355 20.9765 399.8 23.817 394.774 28.6241C389.748 33.6497 387.126 40.2048 387.126 47.1969C387.126 54.1891 389.967 60.7442 394.774 65.7698C399.8 70.7954 406.355 73.4174 413.347 73.4174C420.339 73.4174 426.894 70.5769 431.92 65.7698C436.945 60.7442 439.567 54.1891 439.567 47.1969C439.567 40.2048 436.727 33.6497 431.92 28.6241C426.894 23.817 420.339 20.9765 413.347 20.9765Z" fill="#FCD592"/>
<path d="M4.52464 255.431C-4.65253 232.27 0.154557 204.738 18.7274 185.947C27.6861 176.77 38.8298 171.089 50.629 168.467L57.4026 199.713C42.7629 202.99 32.0561 215.882 32.0561 231.396C32.0561 235.547 32.9302 239.699 34.4597 243.414L4.52464 255.431Z" fill="#E9B200"/>
<path d="M106.786 281.433C98.0457 290.173 87.5575 295.855 76.4138 298.477C71.3882 299.788 66.3626 300.225 61.1185 300.225C58.2779 300.225 55.2189 300.006 52.3783 299.569C38.8311 297.821 25.9393 291.703 15.4511 281.215C15.0141 280.778 14.3586 280.122 13.9216 279.685L37.3015 257.835C43.2011 264.171 51.5043 268.105 60.9 268.105C78.8173 268.105 93.2386 253.683 93.2386 235.766C93.2386 223.093 85.8094 211.949 75.3212 206.705L89.524 177.862C95.6421 180.921 101.542 184.854 106.567 190.099C131.914 215.445 131.914 256.305 106.786 281.433Z" fill="#213F7D"/>
<path d="M89.7408 178.081L75.538 206.923C71.1679 204.738 66.3608 203.646 61.3352 203.646C58.9317 203.646 56.7466 203.864 54.3431 204.301L47.5695 173.055C49.3175 172.618 50.847 172.4 52.5951 172.181C55.4356 171.744 58.4947 171.526 61.3352 171.526C67.4533 171.526 73.5714 172.4 79.471 174.148C82.9671 175.022 86.4632 176.333 89.7408 178.081Z" fill="#39CDCC"/>
<path d="M14.138 285.803C8.4569 279.685 4.30533 272.912 1.24628 265.701L31.1813 253.902C32.7109 257.616 34.8959 261.112 37.5179 263.953L14.138 285.803Z" fill="#D1D9FE"/>
<path d="M510.407 408.329C510.407 408.329 450.61 383.583 480.187 267.567C480.508 267.888 550.594 323.164 510.407 408.329Z" fill="#009DB0"/>
<path d="M506.872 404.151C506.872 404.151 477.294 401.58 447.717 330.235C447.395 330.235 490.475 345.661 506.872 404.151Z" fill="#018BA0"/>
<path d="M510.729 408.329C510.729 408.329 446.431 331.199 546.094 238C546.094 238 603.962 367.193 510.729 408.329Z" fill="#00C0CD"/>
<path d="M510.407 417.649H510.086C509.121 417.327 508.478 416.363 508.478 415.399L538.056 267.245C538.377 266.281 539.342 265.638 540.306 265.638C541.271 265.96 541.914 266.924 541.914 267.888L512.336 416.042C512.015 417.006 511.372 417.649 510.407 417.649Z" fill="#009DB0"/>
<path d="M530.662 316.094C529.697 316.094 529.054 315.451 528.733 314.809C528.411 313.844 529.054 312.88 530.019 312.559L551.559 305.81C552.523 305.489 553.488 306.131 553.809 307.096C554.131 308.06 553.488 309.024 552.523 309.345L530.983 316.094H530.662Z" fill="#009DB0"/>
<path d="M519.732 370.728C518.768 370.728 518.125 370.085 517.803 369.442C517.482 368.478 518.125 367.514 519.089 367.193L540.629 360.444C541.594 360.122 542.558 360.765 542.88 361.729C543.201 362.693 542.558 363.658 541.594 363.979L520.054 370.728C520.054 370.728 520.054 370.728 519.732 370.728Z" fill="#009DB0"/>
<path d="M524.232 347.589C523.589 347.589 523.268 347.268 522.946 346.946L502.692 324.45C502.049 323.807 502.049 322.522 502.692 321.879C503.335 321.236 504.621 321.236 505.264 321.879L525.518 344.375C526.161 345.018 526.161 346.303 525.518 346.946C525.197 347.589 524.875 347.589 524.232 347.589Z" fill="#009DB0"/>
<path d="M525.839 402.544H488.867C487.26 402.544 486.295 403.83 486.295 405.436L493.368 447.537C493.69 448.822 494.654 449.465 495.94 449.465H520.374C521.66 449.465 522.624 448.501 522.946 447.215L528.411 405.115C528.411 403.83 527.447 402.544 525.839 402.544Z" fill="#01052A"/>
<defs>
<filter id="filter0_b" x="112.948" y="25.4435" width="337.501" height="144.249" filterUnits="userSpaceOnUse" color-interpolation-filters="sRGB">
<feFlood flood-opacity="0" result="BackgroundImageFix"/>
<feGaussianBlur in="BackgroundImage" stdDeviation="2"/>
<feComposite in2="SourceAlpha" operator="in" result="effect1_backgroundBlur"/>
<feBlend mode="normal" in="SourceGraphic" in2="effect1_backgroundBlur" result="shape"/>
</filter>
</defs>
</svg>
