<svg width="20" height="20" viewBox="0 0 20 20" fill="none" xmlns="http://www.w3.org/2000/svg">
<g opacity="0.6">
<path d="M9.12703 1V0.9H9.02703H1H0.9V1V9.02703V9.12703H1H9.02703H9.12703V9.02703V1ZM7.95405 7.95405H2.07297V2.07297H7.95405V7.95405Z" fill="#545F7D" stroke="#545F7D" stroke-width="0.2"/>
<path d="M10.8729 9.02703V9.12703H10.9729H18.9999H19.0999V9.02703V1V0.9H18.9999H10.9729H10.8729V1V9.02703ZM12.0459 2.07297H17.927V7.95405H12.0459V2.07297Z" fill="#545F7D" stroke="#545F7D" stroke-width="0.2"/>
<path d="M9.12703 10.9731V10.8731H9.02703H1H0.9V10.9731V19.0002V19.1002H1H9.02703H9.12703V19.0002V10.9731ZM7.95405 17.9272H2.07297V12.0461H7.95405V17.9272Z" fill="#545F7D" stroke="#545F7D" stroke-width="0.2"/>
<path d="M14.9864 10.8731C12.7177 10.8731 10.8729 12.7179 10.8729 14.9867C10.8729 17.2554 12.7177 19.1002 14.9864 19.1002C17.2552 19.1002 19.0999 17.2554 19.0999 14.9867C19.0999 12.7179 17.2552 10.8731 14.9864 10.8731ZM14.9864 17.9272C13.3633 17.9272 12.0459 16.6098 12.0459 14.9867C12.0459 13.3635 13.3633 12.0461 14.9864 12.0461C16.6096 12.0461 17.927 13.3635 17.927 14.9867C17.927 16.6098 16.6096 17.9272 14.9864 17.9272Z" fill="#545F7D" stroke="#545F7D" stroke-width="0.2"/>
</g>
</svg>
