<svg width="20" height="19" viewBox="0 0 20 19" fill="none" xmlns="http://www.w3.org/2000/svg">
<g opacity="0.6">
<path d="M0.597287 0.384198C0.432778 0.401291 0.280553 0.478395 0.170183 0.60053C0.0598141 0.722666 -0.000817946 0.881112 6.66717e-05 1.04509V12.9411C-0.00118269 13.0287 0.015138 13.1156 0.0480804 13.1969C0.0810228 13.2781 0.12993 13.3521 0.191959 13.4145C0.253989 13.4768 0.327904 13.5264 0.409408 13.5602C0.490913 13.594 0.578381 13.6114 0.666731 13.6114C0.755081 13.6114 0.84255 13.594 0.924054 13.5602C1.00556 13.5264 1.07947 13.4768 1.1415 13.4145C1.20353 13.3521 1.25244 13.2781 1.28538 13.1969C1.31832 13.1156 1.33464 13.0287 1.3334 12.9411V1.70597H18.6667V12.2802H3.33339C3.24505 12.279 3.15734 12.2951 3.07536 12.3278C2.99338 12.3604 2.91877 12.4089 2.85586 12.4704C2.79294 12.5319 2.74299 12.6052 2.70889 12.686C2.67479 12.7668 2.65723 12.8535 2.65723 12.9411C2.65723 13.0287 2.67479 13.1154 2.70889 13.1962C2.74299 13.277 2.79294 13.3502 2.85586 13.4117C2.91877 13.4732 2.99338 13.5217 3.07536 13.5544C3.15734 13.587 3.24505 13.6032 3.33339 13.602H9.33337V15.323L4.90977 16.7137C4.82454 16.7384 4.74514 16.7797 4.67625 16.8353C4.60735 16.8908 4.55035 16.9595 4.50858 17.0372C4.46681 17.1149 4.44112 17.2 4.43302 17.2877C4.42492 17.3754 4.43457 17.4638 4.4614 17.5477C4.48823 17.6316 4.53171 17.7094 4.58927 17.7764C4.64684 17.8435 4.71733 17.8984 4.79662 17.9381C4.87591 17.9778 4.96239 18.0013 5.05098 18.0074C5.13958 18.0135 5.22851 18.0019 5.31255 17.9735L10 16.5002L14.6875 17.9735C14.7716 18.0019 14.8605 18.0135 14.9491 18.0074C15.0377 18.0013 15.1242 17.9778 15.2034 17.9381C15.2827 17.8984 15.3532 17.8435 15.4108 17.7764C15.4684 17.7094 15.5118 17.6316 15.5387 17.5477C15.5655 17.4638 15.5751 17.3754 15.567 17.2877C15.5589 17.2 15.5333 17.1149 15.4915 17.0372C15.4497 16.9595 15.3927 16.8908 15.3238 16.8353C15.2549 16.7797 15.1755 16.7384 15.0903 16.7137L10.6667 15.323V13.602H19.3333C19.5101 13.6019 19.6797 13.5323 19.8047 13.4084C19.9297 13.2844 20 13.1164 20 12.9411V1.04509C20 0.869813 19.9297 0.701724 19.8047 0.577787C19.6797 0.45385 19.5101 0.384215 19.3333 0.384198H0.666731C0.643599 0.383002 0.620419 0.383002 0.597287 0.384198V0.384198ZM12.8195 3.02775C12.7319 3.03226 12.6461 3.05382 12.567 3.0912C12.4878 3.12858 12.4169 3.18106 12.3582 3.24562C12.2995 3.31019 12.2542 3.38559 12.2249 3.46751C12.1956 3.54943 12.1829 3.63627 12.1874 3.72307C12.192 3.80987 12.2137 3.89492 12.2515 3.97338C12.2892 4.05184 12.3421 4.12217 12.4073 4.18034C12.4724 4.23852 12.5485 4.2834 12.6311 4.31243C12.7138 4.34146 12.8014 4.35406 12.8889 4.34953H15.3333V6.77279C15.3321 6.86036 15.3484 6.94731 15.3814 7.02858C15.4143 7.10985 15.4632 7.18381 15.5252 7.24618C15.5873 7.30855 15.6612 7.35807 15.7427 7.39188C15.8242 7.42568 15.9117 7.44309 16 7.44309C16.0884 7.44309 16.1758 7.42568 16.2573 7.39188C16.3388 7.35807 16.4128 7.30855 16.4748 7.24618C16.5368 7.18381 16.5857 7.10985 16.6187 7.02858C16.6516 6.94731 16.6679 6.86036 16.6667 6.77279V3.68864C16.6667 3.51337 16.5964 3.34528 16.4714 3.22134C16.3464 3.0974 16.1768 3.02777 16 3.02775H12.8889C12.8658 3.02656 12.8426 3.02656 12.8195 3.02775V3.02775ZM13.632 5.44413C13.4593 5.45451 13.2974 5.53104 13.1806 5.65754L11.0764 7.83296L9.11809 6.06371C9.00058 5.95706 8.84844 5.89566 8.68921 5.89061C8.52998 5.88556 8.37419 5.93719 8.25004 6.03617L3.58339 9.78121C3.50675 9.83232 3.44167 9.89867 3.39226 9.97604C3.34285 10.0534 3.3102 10.1401 3.29637 10.2306C3.28254 10.3212 3.28784 10.4136 3.31193 10.502C3.33603 10.5904 3.37838 10.6728 3.43632 10.7442C3.49426 10.8155 3.56651 10.8741 3.6485 10.9163C3.73049 10.9584 3.82042 10.9833 3.9126 10.9892C4.00477 10.9951 4.09718 10.9819 4.18396 10.9506C4.27075 10.9192 4.35001 10.8703 4.41672 10.807L8.63893 7.41991L10.6598 9.24423C10.7887 9.35999 10.9582 9.42118 11.1321 9.41475C11.306 9.40832 11.4704 9.33478 11.5903 9.20981L14.1389 6.56626C14.2324 6.4714 14.2949 6.35087 14.3184 6.22033C14.3418 6.08979 14.3251 5.95527 14.2705 5.83426C14.2158 5.71324 14.1257 5.61132 14.0118 5.54175C13.8979 5.47218 13.7656 5.43816 13.632 5.44413V5.44413Z" fill="#545F7D"/>
</g>
</svg>
