<svg width="14" height="14" viewBox="0 0 14 14" fill="none" xmlns="http://www.w3.org/2000/svg">
<path d="M10.8042 9.80899C10.6221 9.62941 10.607 9.34264 10.75 9.13064C11.3959 8.17297 11.7466 7.0254 11.7466 5.8653C11.7466 2.63699 9.10959 0 5.8653 0C2.621 0 0 2.63699 0 5.8653C0 9.09361 2.63699 11.7306 5.8653 11.7306C7.01465 11.7306 8.164 11.3778 9.13439 10.7283C9.34461 10.5875 9.62772 10.6026 9.8066 10.7815L12.6716 13.6464C12.8668 13.8417 13.1834 13.8417 13.3787 13.6464L13.676 13.3491C13.8722 13.1529 13.8711 12.8345 13.6736 12.6396L10.8042 9.80899ZM5.8653 10.3402C3.42009 10.3402 1.42237 8.34247 1.42237 5.89726C1.42237 3.45205 3.42009 1.45434 5.8653 1.45434C8.3105 1.45434 10.3082 3.45205 10.3082 5.89726C10.3082 8.34247 8.3105 10.3402 5.8653 10.3402Z" fill="#39CDCC"/>
</svg>
