<svg width="26" height="26" viewBox="0 0 26 26" fill="none" xmlns="http://www.w3.org/2000/svg">
<g filter="url(#filter0_d)">
<path fill-rule="evenodd" clip-rule="evenodd" d="M19.2501 8.9135C19.2501 9.19438 19.2251 9.45873 19.1918 9.72309L20.9501 11.0862C21.1084 11.2101 21.1501 11.4332 21.0501 11.6149L19.3834 14.4733C19.3084 14.6054 19.1668 14.6798 19.0251 14.6798C18.9751 14.6798 18.9251 14.6715 18.8751 14.655L16.8001 13.8289C16.3668 14.1511 15.9001 14.4319 15.3918 14.6385L15.0751 16.8277C15.0501 17.026 14.8751 17.1747 14.6668 17.1747H11.3334C11.1251 17.1747 10.9501 17.026 10.9251 16.8277L10.6084 14.6385C10.1001 14.4319 9.63344 14.1593 9.20011 13.8289L7.12511 14.655C7.08344 14.6715 7.03344 14.6798 6.98344 14.6798C6.83344 14.6798 6.69178 14.6054 6.61678 14.4733L4.95011 11.6149C4.85011 11.4332 4.89178 11.2101 5.05011 11.0862L6.80844 9.72309C6.77511 9.45873 6.75011 9.18612 6.75011 8.9135C6.75011 8.64088 6.77511 8.36826 6.80844 8.10391L5.05011 6.74081C4.89178 6.6169 4.84178 6.39385 4.95011 6.2121L6.61678 3.35374C6.69178 3.22156 6.83344 3.14721 6.97511 3.14721C7.02511 3.14721 7.07511 3.15547 7.12511 3.172L9.20011 3.99811C9.63344 3.67593 10.1001 3.39505 10.6084 3.18852L10.9251 0.999312C10.9501 0.801045 11.1251 0.652344 11.3334 0.652344H14.6668C14.8751 0.652344 15.0501 0.801045 15.0751 0.999312L15.3918 3.18852C15.9001 3.39505 16.3668 3.66767 16.8001 3.99811L18.8751 3.172C18.9168 3.15547 18.9668 3.14721 19.0168 3.14721C19.1668 3.14721 19.3084 3.22156 19.3834 3.35374L21.0501 6.2121C21.1501 6.39385 21.1084 6.6169 20.9501 6.74081L19.1918 8.10391C19.2251 8.36826 19.2501 8.63262 19.2501 8.9135ZM17.5834 8.91348C17.5834 8.74 17.5751 8.56651 17.5418 8.31042L17.4251 7.37691L18.1668 6.79863L19.0584 6.09643L18.4751 5.09683L17.4168 5.51815L16.5334 5.87338L15.7751 5.2951C15.4418 5.04727 15.1084 4.85726 14.7501 4.70856L13.8668 4.35333L13.7334 3.41982L13.5751 2.30457H12.4168L12.2501 3.41982L12.1168 4.35333L11.2334 4.70856C10.8918 4.849 10.5501 5.04727 10.1918 5.31162L9.44178 5.87338L8.57511 5.52641L7.51678 5.10509L6.93344 6.10469L7.83344 6.79863L8.57511 7.37691L8.45844 8.31042C8.43344 8.55825 8.41678 8.74826 8.41678 8.91348C8.41678 9.07871 8.43344 9.26871 8.45844 9.52481L8.57511 10.4583L7.83344 11.0366L6.93344 11.7305L7.51678 12.7301L8.57511 12.3088L9.45844 11.9536L10.2168 12.5319C10.5501 12.7797 10.8834 12.9697 11.2418 13.1184L12.1251 13.4736L12.2584 14.4071L12.4168 15.5224H13.5834L13.7501 14.4071L13.8834 13.4736L14.7668 13.1184C15.1084 12.978 15.4501 12.7797 15.8084 12.5153L16.5584 11.9536L17.4251 12.3006L18.4834 12.7219L19.0668 11.7223L18.1668 11.0283L17.4251 10.4501L17.5418 9.51655C17.5668 9.26871 17.5834 9.08697 17.5834 8.91348ZM13.0001 5.60901C11.1584 5.60901 9.66678 7.08776 9.66678 8.91348C9.66678 10.7392 11.1584 12.218 13.0001 12.218C14.8418 12.218 16.3334 10.7392 16.3334 8.91348C16.3334 7.08776 14.8418 5.60901 13.0001 5.60901ZM11.3334 8.91348C11.3334 9.8222 12.0834 10.5657 13.0001 10.5657C13.9168 10.5657 14.6668 9.8222 14.6668 8.91348C14.6668 8.00476 13.9168 7.26126 13.0001 7.26126C12.0834 7.26126 11.3334 8.00476 11.3334 8.91348Z" fill="#545F7D"/>
</g>
<defs>
<filter id="filter0_d" x="0.892334" y="0.652344" width="24.2119" height="24.5223" filterUnits="userSpaceOnUse" color-interpolation-filters="sRGB">
<feFlood flood-opacity="0" result="BackgroundImageFix"/>
<feColorMatrix in="SourceAlpha" type="matrix" values="0 0 0 0 0 0 0 0 0 0 0 0 0 0 0 0 0 0 127 0"/>
<feOffset dy="4"/>
<feGaussianBlur stdDeviation="2"/>
<feColorMatrix type="matrix" values="0 0 0 0 0 0 0 0 0 0 0 0 0 0 0 0 0 0 0.25 0"/>
<feBlend mode="normal" in2="BackgroundImageFix" result="effect1_dropShadow"/>
<feBlend mode="normal" in="SourceGraphic" in2="effect1_dropShadow" result="shape"/>
</filter>
</defs>
</svg>
