<svg width="15" height="15" viewBox="0 0 15 15" fill="none" xmlns="http://www.w3.org/2000/svg">
<path d="M3.20925 0.199689C2.94334 -0.0665629 2.51107 -0.0665629 2.24516 0.199689L0.199689 2.24515C-0.0665629 2.51141 -0.0665629 2.943 0.199689 3.20925C0.465599 3.4755 0.897874 3.4755 1.16378 3.20925L2.04538 2.328V14.3182C2.04538 14.6945 2.35084 15 2.7272 15C3.10357 15 3.40903 14.6945 3.40903 14.3182V2.328L4.29062 3.20925C4.42358 3.34255 4.59812 3.40902 4.77267 3.40902C4.94722 3.40902 5.12176 3.34255 5.25472 3.20925C5.52097 2.943 5.52097 2.51141 5.25472 2.24515L3.20925 0.199689Z" fill="#39CDCC"/>
<path d="M6.81854 6.81823H10.2277C10.604 6.81823 10.9095 6.51278 10.9095 6.13641C10.9095 5.76005 10.604 5.45459 10.2277 5.45459H6.81854C6.44218 5.45459 6.13672 5.76005 6.13672 6.13641C6.13672 6.51278 6.44218 6.81823 6.81854 6.81823Z" fill="#39CDCC"/>
<path d="M6.81854 10.2272H11.5913C11.9677 10.2272 12.2731 9.92171 12.2731 9.54535C12.2731 9.16898 11.9677 8.86353 11.5913 8.86353H6.81854C6.44218 8.86353 6.13672 9.16898 6.13672 9.54535C6.13672 9.92171 6.44218 10.2272 6.81854 10.2272Z" fill="#39CDCC"/>
<path d="M13.6368 12.2727H6.81854C6.44218 12.2727 6.13672 12.5782 6.13672 12.9545C6.13672 13.3309 6.44218 13.6363 6.81854 13.6363H13.6368C14.0131 13.6363 14.3186 13.3309 14.3186 12.9545C14.3186 12.5782 14.0131 12.2727 13.6368 12.2727Z" fill="#39CDCC"/>
</svg>
