<svg width="22" height="15" viewBox="0 0 22 15" fill="none" xmlns="http://www.w3.org/2000/svg">
<path opacity="0.6" d="M2.61631 2.52095C2.61631 1.55663 3.36136 0.818652 4.33304 0.818652H18.7781C18.956 0.818652 19.1082 0.877647 19.2161 0.984605C19.324 1.0916 19.3837 1.2427 19.3837 1.41942C19.3837 1.59614 19.324 1.74724 19.2161 1.85423C19.1082 1.96119 18.956 2.02019 18.7781 2.02019H4.33304C4.1776 2.02019 4.05201 2.07135 3.96545 2.15716C3.87893 2.24293 3.82746 2.36722 3.82746 2.52095V8.78979L4.46495 8.15878L4.46498 8.15875M2.61631 2.52095L1.94362 8.19429C1.72139 7.97398 1.38891 7.97398 1.16667 8.19429C0.944442 8.41459 0.944442 8.74419 1.16667 8.9645L2.83341 10.6168C2.94453 10.727 3.05521 10.7825 3.22188 10.7825C3.38856 10.7825 3.49924 10.727 3.61036 10.6168L5.2771 8.9645C5.49933 8.74419 5.49933 8.41459 5.2771 8.19429C5.05486 7.97398 4.72238 7.97398 4.50015 8.19429L4.46498 8.15875M2.61631 2.52095V8.78979L1.97882 8.15878L1.97879 8.15875M2.61631 2.52095L1.97879 8.15875M4.46498 8.15875C4.7067 7.91915 5.07058 7.91916 5.3123 8.15878C5.55426 8.39865 5.55426 8.76014 5.3123 9.00001L3.64556 10.6523C3.58709 10.7103 3.52673 10.7559 3.45721 10.7867C3.38747 10.8176 3.31105 10.8325 3.22188 10.8325C3.13271 10.8325 3.0563 10.8176 2.98656 10.7867C2.91704 10.7559 2.85668 10.7103 2.79821 10.6523L1.13147 9.00001C0.889509 8.76014 0.889509 8.39865 1.13147 8.15878C1.37319 7.91916 1.73707 7.91915 1.97879 8.15875M4.46498 8.15875H1.97879M20.0212 6.79694C20.0212 6.79695 20.0212 6.79696 20.0212 6.79697C20.1423 6.91694 20.3214 6.97709 20.4449 6.97709C20.5683 6.97709 20.7475 6.91693 20.8685 6.79694C21.1105 6.55707 21.1105 6.19558 20.8685 5.95571L19.2018 4.30341C19.0817 4.18432 18.9307 4.12326 18.7781 4.12326C18.6255 4.12326 18.4746 4.18432 18.3544 4.30341L20.0564 6.76143L20.0212 6.79694ZM20.0212 6.79694L19.3837 6.16593M20.0212 6.79694L19.3837 6.16593M19.3837 6.16593V12.4348C19.3837 13.3991 18.6386 14.1371 17.667 14.1371H3.22188C3.04398 14.1371 2.89178 14.0781 2.78389 13.9711C2.67596 13.8641 2.61631 13.713 2.61631 13.5363C2.61631 13.3596 2.67596 13.2085 2.78389 13.1015C2.89178 12.9945 3.04398 12.9355 3.22188 12.9355H17.667C17.8224 12.9355 17.948 12.8844 18.0346 12.7986C18.1211 12.7128 18.1725 12.5885 18.1725 12.4348V6.16593" fill="#545F7D" stroke="#545F7D" stroke-width="0.1"/>
</svg>
