<svg width="45" height="45" viewBox="0 0 45 45" fill="none" xmlns="http://www.w3.org/2000/svg">
<circle cx="22.5" cy="22.5" r="22.5" fill="#E5F5F6"/>
<path d="M22.1053 13C23.9889 13 25.8829 13.7184 27.3191 15.1546C28.3872 16.2227 29.0347 17.5476 29.3092 18.9293C32.0963 19.4699 34.2105 21.904 34.2105 24.8421C34.2105 28.1755 31.4913 30.8947 28.1579 30.8947H25.2632C25.1585 30.8962 25.0547 30.8769 24.9576 30.8379C24.8605 30.7989 24.7722 30.741 24.6977 30.6675C24.6232 30.594 24.564 30.5065 24.5236 30.41C24.4832 30.3135 24.4624 30.2099 24.4624 30.1053C24.4624 30.0006 24.4832 29.8971 24.5236 29.8005C24.564 29.704 24.6232 29.6165 24.6977 29.543C24.7722 29.4696 24.8605 29.4117 24.9576 29.3726C25.0547 29.3336 25.1585 29.3143 25.2632 29.3158H28.1579C30.6379 29.3158 32.6316 27.3222 32.6316 24.8421C32.6316 22.5 30.8504 20.592 28.5691 20.3849C28.3902 20.3674 28.2226 20.2895 28.094 20.1639C27.9654 20.0383 27.8835 19.8725 27.8618 19.6941C27.7166 18.4427 27.1629 17.227 26.2007 16.2648C25.0676 15.1318 23.589 14.5789 22.1053 14.5789C20.6215 14.5789 19.1522 15.1306 18.0181 16.2648C16.7075 17.5754 16.1529 19.3561 16.3569 21.0592C16.3709 21.1702 16.3611 21.2828 16.3283 21.3897C16.2954 21.4966 16.2402 21.5953 16.1664 21.6793C16.0925 21.7632 16.0016 21.8306 15.8998 21.8768C15.798 21.923 15.6875 21.9471 15.5757 21.9474H15.2632C13.2084 21.9474 11.5789 23.5769 11.5789 25.6316C11.5789 27.6863 13.2084 29.3158 15.2632 29.3158H18.9474C19.052 29.3143 19.1558 29.3336 19.2529 29.3726C19.35 29.4117 19.4384 29.4696 19.5129 29.543C19.5874 29.6165 19.6465 29.704 19.6869 29.8005C19.7273 29.8971 19.7481 30.0006 19.7481 30.1053C19.7481 30.2099 19.7273 30.3135 19.6869 30.41C19.6465 30.5065 19.5874 30.594 19.5129 30.6675C19.4384 30.741 19.35 30.7989 19.2529 30.8379C19.1558 30.8769 19.052 30.8962 18.9474 30.8947H15.2632C12.361 30.8947 10 28.5337 10 25.6316C10 22.8926 12.1101 20.6629 14.7862 20.4178C14.7738 18.5128 15.4504 16.6038 16.8997 15.1546C18.3346 13.7196 20.2216 13 22.1053 13ZM22.1053 22.4737C22.3685 22.4737 22.5077 22.5584 22.6398 22.6793L25.5345 25.3108C25.8688 25.6211 25.8629 26.1245 25.5839 26.4293C25.3048 26.734 24.7716 26.7561 24.4655 26.4786L22.8947 25.0477V32.2105C22.8947 32.6465 22.5413 33 22.1053 33C21.6692 33 21.3158 32.6465 21.3158 32.2105V25.0477L19.7451 26.4786C19.4389 26.7561 18.9218 26.7185 18.6266 26.4293C18.3156 26.1245 18.3726 25.5913 18.676 25.3108L21.5707 22.6793C21.7271 22.5361 21.8421 22.4737 22.1053 22.4737Z" fill="#39CDCC"/>
</svg>
